<?xml version="1.0" encoding="iso-8859-1"?>
<!-- Generator: Adobe Illustrator 19.0.0, SVG Export Plug-In . SVG Version: 6.00 Build 0)  -->
<svg version="1.1" id="Capa_1" xmlns="http://www.w3.org/2000/svg" xmlns:xlink="http://www.w3.org/1999/xlink" x="0px" y="0px"
	 viewBox="0 0 512.004 512.004" style="enable-background:new 0 0 512.004 512.004;" xml:space="preserve">
<path style="fill:#AAC4DA;" d="M469.335,32v32H42.669V32c0.035-11.767,9.566-21.298,21.333-21.333h384
	C459.769,10.702,469.3,20.233,469.335,32z"/>
<path style="fill:#D9EEF7;" d="M469.335,64v352l-213.333,85.333L42.669,416V64h42.667v32v288l170.667,64l170.667-64V96V64H469.335z"
	/>
<path style="fill:#FFE451;" d="M426.669,96v288l-170.667,64L85.335,384V96V64h341.333V96z"/>
<g>
	<path style="fill:#AAC4DA;" d="M309.335,277.333V320H202.669v-42.667h21.333h64H309.335z"/>
	<path style="fill:#AAC4DA;" d="M320.002,138.667v42.667h-32h-64h-32v-42.667h32h64H320.002z"/>
</g>
<g>
	<path style="fill:#D9EEF7;" d="M330.669,320v32H181.335v-32h21.333h106.667H330.669z"/>
	<path style="fill:#D9EEF7;" d="M288.002,213.333v64h-64v-64v-32h64V213.333z"/>
	<path style="fill:#D9EEF7;" d="M224.002,106.667h64v32h-64V106.667z"/>
</g>
<g>
	<path style="fill:#4C5B66;" d="M501.335,53.333h-21.333V32c0-17.673-14.327-32-32-32h-384c-17.673,0-32,14.327-32,32v21.333H10.669
		v21.333h21.333V416c-0.002,4.365,2.656,8.29,6.709,9.909l213.333,85.333c2.541,1.015,5.374,1.015,7.915,0l213.333-85.333
		c4.053-1.619,6.711-5.545,6.709-9.909V74.667h21.333L501.335,53.333z M53.335,32c0-5.891,4.776-10.667,10.667-10.667h384
		c5.891,0,10.667,4.776,10.667,10.667v21.333H53.335V32z M458.669,408.779l-202.667,81.067L53.335,408.779V74.667h405.333V408.779z"
		/>
	<path style="fill:#4C5B66;" d="M81.581,393.995l170.667,64c2.41,0.885,5.057,0.885,7.467,0l170.667-64
		c4.179-1.551,6.952-5.537,6.955-9.995V96h-21.333v280.608l-149.333,56V384h-21.333v48.608l-149.333-56V96H74.669v288
		C74.664,388.447,77.419,392.43,81.581,393.995z"/>
	<path style="fill:#4C5B66;" d="M192.002,192h128c5.891,0,10.667-4.776,10.667-10.667v-42.667c0-5.891-4.776-10.667-10.667-10.667
		h-21.333v-21.333c0-5.891-4.776-10.667-10.667-10.667h-64c-5.891,0-10.667,4.776-10.667,10.667V128h-21.333
		c-5.891,0-10.667,4.776-10.667,10.667v42.667C181.335,187.224,186.111,192,192.002,192z M234.669,117.333h42.667V128h-42.667
		V117.333z M202.669,149.333h106.667v21.333H202.669V149.333z"/>
	<path style="fill:#4C5B66;" d="M330.669,362.667h32v-21.333h-21.333V320c0-5.891-4.776-10.667-10.667-10.667h-10.667v-32
		c0-5.891-4.776-10.667-10.667-10.667h-10.667v-53.333h-21.333v53.333h-42.667v-53.333h-21.333v53.333h-10.667
		c-5.891,0-10.667,4.776-10.667,10.667v32h-10.667c-5.891,0-10.667,4.776-10.667,10.667v21.333h-21.333v21.333H330.669z
		 M213.335,288h85.333v21.333h-85.333V288z M192.002,330.667h128v10.667h-128V330.667z"/>
	<path style="fill:#4C5B66;" d="M117.335,96h21.333v21.333h-21.333V96z"/>
	<path style="fill:#4C5B66;" d="M373.335,96h21.333v21.333h-21.333V96z"/>
</g>
<g>
</g>
<g>
</g>
<g>
</g>
<g>
</g>
<g>
</g>
<g>
</g>
<g>
</g>
<g>
</g>
<g>
</g>
<g>
</g>
<g>
</g>
<g>
</g>
<g>
</g>
<g>
</g>
<g>
</g>
</svg>
