<?xml version="1.0" encoding="iso-8859-1"?>
<!-- Generator: Adobe Illustrator 21.0.0, SVG Export Plug-In . SVG Version: 6.00 Build 0)  -->
<svg version="1.1" id="Capa_1" xmlns="http://www.w3.org/2000/svg" xmlns:xlink="http://www.w3.org/1999/xlink" x="0px" y="0px"
	 viewBox="0 0 512.003 512.003" style="enable-background:new 0 0 512.003 512.003;" xml:space="preserve">
<g>
	<polygon style="fill:#0050C3;" points="374.04,58.7 26.478,58.7 26.478,135.702 241.451,215.12 	"/>
	<polygon style="fill:#0050C3;" points="374.04,58.7 26.478,58.7 26.478,135.702 241.451,215.12 	"/>
</g>
<g>
	
		<rect x="-18.876" y="176.619" transform="matrix(0.7053 -0.7089 0.7089 0.7053 -111.1298 115.857)" style="fill:#FABE3D;" width="205.322" height="29.946"/>
	
		<rect x="115.183" y="158.421" transform="matrix(0.7045 -0.7097 0.7097 0.7045 -68.3134 182.7189)" style="fill:#FABE3D;" width="140.159" height="29.946"/>
</g>
<polygon style="fill:#0050C3;" points="451.47,138.261 294.889,271.022 374.474,486.448 451.477,486.448 "/>
<polygon style="fill:#0040A0;" points="451.47,138.261 294.889,271.022 374.474,486.448 451.477,486.448 "/>
<g>
	
		<rect x="218.206" y="413.693" transform="matrix(0.7053 -0.7089 0.7089 0.7053 -209.3252 353.7897)" style="fill:#FABE3D;" width="205.322" height="29.946"/>
	
		<rect x="268.061" y="310.305" transform="matrix(0.7045 -0.7097 0.7097 0.7045 -130.9306 336.0981)" style="fill:#FABE3D;" width="140.159" height="29.946"/>
</g>
<g>
	
		<rect x="218.206" y="413.693" transform="matrix(0.7053 -0.7089 0.7089 0.7053 -209.3252 353.7897)" style="fill:#FD982C;" width="205.322" height="29.946"/>
	
		<rect x="268.061" y="310.305" transform="matrix(0.7045 -0.7097 0.7097 0.7045 -130.9306 336.0981)" style="fill:#FD982C;" width="140.159" height="29.946"/>
</g>
<path style="fill:#9ED0FF;" d="M501.177,10.064c-12.125-12.125-33.087-13.318-60.62-3.448
	c-18.937,6.789-38.801,18.167-48.303,27.669L179.68,246.859l-85.197,5.574L46.85,300.068l107.02,57.171l57.312,107.145
	l47.626-47.627l5.575-85.197l212.574-212.575c9.503-9.503,20.881-29.365,27.67-48.303C514.494,43.151,513.302,22.189,501.177,10.064
	z"/>
<path style="fill:#73BCFF;" d="M154.006,357.495l57.175,106.889l47.626-47.627l5.575-85.197l212.574-212.575
	c9.503-9.503,20.881-29.365,27.67-48.303c9.833-27.433,8.683-48.341-3.322-60.485L154.006,357.495z"/>
<rect x="107.608" y="335.39" transform="matrix(0.7071 -0.7071 0.7071 0.7071 -200.6288 216.3659)" style="fill:#3AAAFF;" width="106.509" height="29.946"/>
<rect x="112.978" y="348.337" transform="matrix(0.7071 -0.7071 0.7071 0.7071 -202.8517 221.7351)" style="fill:#006EFF;" width="106.509" height="14.788"/>
<g>
</g>
<g>
</g>
<g>
</g>
<g>
</g>
<g>
</g>
<g>
</g>
<g>
</g>
<g>
</g>
<g>
</g>
<g>
</g>
<g>
</g>
<g>
</g>
<g>
</g>
<g>
</g>
<g>
</g>
</svg>
