<?xml version="1.0" encoding="iso-8859-1"?>
<!-- Generator: Adobe Illustrator 19.0.0, SVG Export Plug-In . SVG Version: 6.00 Build 0)  -->
<svg version="1.1" id="Capa_1" xmlns="http://www.w3.org/2000/svg" xmlns:xlink="http://www.w3.org/1999/xlink" x="0px" y="0px"
	 viewBox="0 0 480.007 480.007" style="enable-background:new 0 0 480.007 480.007;" xml:space="preserve">
<path style="fill:#65CECC;" d="M56.003,199.952l-16,96.055h48v88h112v88h240V199.952l-0.164,7.998
	c0.109-2.652,0.163-5.318,0.164-7.998c0-106.039-85.961-192-192-192S56.003,93.913,56.003,199.952z"/>
<circle style="fill:#E9CD4B;" cx="248.003" cy="200.007" r="144"/>
<path style="fill:#DE2F55;" d="M359.091,213.65c1.217-9.055,1.217-18.231,0-27.286l-16.703-3.51
	c-0.943-5.18-2.316-10.272-4.103-15.225l12.798-11.465c-3.603-8.36-8.214-16.248-13.731-23.489l-16.146,5.303
	c-3.412-4.022-7.148-7.757-11.17-11.169l5.304-16.147c-7.241-5.518-15.13-10.13-23.491-13.733l-11.466,12.797
	c-4.953-1.787-10.046-3.159-15.226-4.103l-3.511-16.703c-9.055-1.217-18.231-1.217-27.286,0l-3.51,16.703
	c-5.18,0.944-10.272,2.316-15.225,4.103L204.16,96.927c-8.36,3.603-16.248,8.214-23.489,13.731l5.303,16.146
	c-4.022,3.412-7.757,7.148-11.169,11.17l-16.147-5.304c-5.518,7.241-10.129,15.13-13.732,23.49l12.797,11.466
	c-1.787,4.953-3.159,10.046-4.103,15.226l-16.703,3.511c-1.217,9.055-1.217,18.231,0,27.286l16.703,3.51
	c0.943,5.18,2.316,10.273,4.103,15.225l-12.797,11.465c3.603,8.36,8.214,16.248,13.731,23.489l16.146-5.303
	c3.412,4.022,7.148,7.757,11.17,11.169l-5.304,16.147c7.241,5.518,15.13,10.13,23.491,13.733l11.466-12.797
	c4.953,1.787,10.046,3.16,15.226,4.104l3.511,16.703c9.055,1.217,18.231,1.217,27.286,0l3.51-16.703
	c5.18-0.944,10.272-2.316,15.225-4.103l11.465,12.798c8.36-3.603,16.248-8.214,23.489-13.731l-5.303-16.146
	c4.022-3.412,7.757-7.148,11.169-11.17l16.147,5.304c5.518-7.241,10.13-15.13,13.733-23.491l-12.797-11.466
	c1.787-4.953,3.159-10.046,4.103-15.226L359.091,213.65z"/>
<circle style="fill:#E9CD4B;" cx="248.003" cy="200.007" r="64"/>
<path style="fill:#4AA5DD;" d="M232.003,168.007v64l48-32L232.003,168.007z"/>
<path d="M248.003,352.007c-83.947,0-152-68.053-152-152s68.053-152,152-152s152,68.053,152,152
	C399.908,283.915,331.911,351.912,248.003,352.007z M248.003,64.007c-75.111,0-136,60.889-136,136s60.889,136,136,136
	s136-60.889,136-136C383.919,124.931,323.079,64.091,248.003,64.007z"/>
<path d="M261.644,319.093h-27.281c-3.783-0.001-7.048-2.65-7.828-6.352l-2.438-11.594c-2.008-0.477-4.01-1.017-6.008-1.621
	l-7.969,8.895c-2.283,2.557-5.942,3.371-9.094,2.023c-8.96-3.861-17.415-8.8-25.18-14.707c-2.73-2.062-3.848-5.632-2.781-8.883
	l3.672-11.176c-1.508-1.426-2.984-2.898-4.406-4.41l-11.188,3.672c-3.252,1.062-6.819-0.057-8.883-2.785
	c-5.9-7.763-10.834-16.214-14.695-25.168c-1.344-3.152-0.531-6.81,2.023-9.094l8.891-7.973c-0.594-1.977-1.133-3.961-1.602-5.949
	l-12.438-2.48c-3.743-0.743-6.438-4.028-6.437-7.844v-27.285c-0.001-3.816,2.695-7.1,6.438-7.844l12.438-2.48
	c0.469-1.984,1.008-3.973,1.602-5.945l-8.891-7.973c-2.554-2.284-3.368-5.942-2.023-9.094c3.863-8.958,8.803-17.413,14.711-25.176
	c2.066-2.725,5.632-3.842,8.883-2.781l11.172,3.672c1.422-1.512,2.898-2.98,4.406-4.41l-3.672-11.176
	c-1.066-3.251,0.051-6.82,2.781-8.883c7.765-5.907,16.22-10.845,25.18-14.707c3.152-1.338,6.806-0.525,9.094,2.023l7.969,8.898
	c2-0.602,4.003-1.142,6.008-1.621l2.438-11.594c0.78-3.701,4.045-6.351,7.828-6.352h27.281c3.783,0.001,7.048,2.65,7.828,6.352
	l2.438,11.594c2.008,0.477,4.01,1.017,6.008,1.621l7.969-8.895c2.288-2.547,5.941-3.36,9.094-2.023
	c8.96,3.861,17.415,8.8,25.18,14.707c2.73,2.062,3.848,5.632,2.781,8.883l-3.672,11.176c1.508,1.426,2.984,2.898,4.406,4.41
	l11.188-3.672c3.252-1.062,6.819,0.057,8.883,2.785c5.9,7.763,10.834,16.214,14.695,25.168c1.344,3.152,0.53,6.81-2.023,9.094
	l-8.891,7.973c0.602,1.996,1.141,3.999,1.617,6.008l11.594,2.438c3.703,0.778,6.353,4.044,6.352,7.828v27.285
	c0.001,3.786-2.653,7.054-6.359,7.828l-11.586,2.434c-0.477,2.008-1.016,4.01-1.617,6.008l8.891,7.973
	c2.554,2.284,3.368,5.942,2.023,9.094c-3.863,8.958-8.803,17.413-14.711,25.176c-2.054,2.742-5.632,3.862-8.883,2.781l-11.172-3.672
	c-1.422,1.512-2.898,2.98-4.406,4.41l3.672,11.176c1.066,3.251-0.051,6.82-2.781,8.883c-7.765,5.907-16.22,10.845-25.18,14.707
	c-3.152,1.344-6.809,0.53-9.094-2.023l-7.969-8.898c-2,0.602-4.003,1.142-6.008,1.621l-2.438,11.594
	C268.692,316.443,265.426,319.092,261.644,319.093L261.644,319.093z M240.855,303.093h14.297l2.18-10.352
	c0.671-3.185,3.203-5.647,6.406-6.227c4.742-0.864,9.404-2.121,13.937-3.758c3.065-1.094,6.488-0.229,8.664,2.191l7.523,8.398
	c4.17-2.085,8.194-4.449,12.047-7.074l-3.477-10.566c-1.013-3.092-0.056-6.489,2.422-8.598c3.688-3.125,7.111-6.549,10.234-10.238
	c2.108-2.487,5.512-3.449,8.609-2.434l10.57,3.473c2.625-3.851,4.987-7.874,7.07-12.043l-8.39-7.523
	c-2.429-2.171-3.297-5.598-2.195-8.664c1.638-4.533,2.895-9.195,3.758-13.937c0.579-3.207,3.045-5.742,6.234-6.41l10.344-2.176
	v-14.297l-10.352-2.176c-3.188-0.669-5.651-3.205-6.227-6.41c-0.862-4.742-2.119-9.404-3.758-13.937
	c-1.102-3.066-0.234-6.493,2.195-8.664l8.391-7.523c-2.085-4.166-4.447-8.188-7.07-12.039l-10.57,3.469
	c-3.088,1.009-6.48,0.052-8.586-2.422c-3.136-3.687-6.567-7.114-10.258-10.246c-2.478-2.108-3.435-5.506-2.422-8.598l3.477-10.57
	c-3.854-2.621-7.879-4.983-12.047-7.07l-7.516,8.391c-2.172,2.428-5.598,3.296-8.664,2.195c-4.537-1.636-9.201-2.892-13.945-3.758
	c-3.203-0.58-5.735-3.042-6.406-6.227l-2.18-10.352h-14.297l-2.18,10.352c-0.671,3.185-3.203,5.647-6.406,6.227
	c-4.742,0.864-9.404,2.121-13.937,3.758c-3.065,1.094-6.488,0.229-8.664-2.191l-7.523-8.398c-4.169,2.085-8.193,4.447-12.047,7.07
	l3.477,10.57c1.013,3.092,0.056,6.489-2.422,8.598c-3.688,3.125-7.111,6.549-10.234,10.238c-2.107,2.488-5.512,3.451-8.609,2.434
	l-10.57-3.473c-2.625,3.851-4.987,7.874-7.07,12.043l8.391,7.523c2.429,2.171,3.297,5.598,2.195,8.664
	c-1.637,4.532-2.894,9.193-3.758,13.934c-0.583,3.236-3.087,5.786-6.312,6.426l-11.18,2.231v14.16l11.18,2.23
	c3.225,0.64,5.73,3.19,6.312,6.426c0.862,4.742,2.119,9.404,3.758,13.937c1.102,3.066,0.234,6.493-2.195,8.664l-8.391,7.523
	c2.085,4.166,4.447,8.188,7.07,12.039l10.57-3.469c3.088-1.02,6.486-0.062,8.586,2.422c3.136,3.687,6.567,7.114,10.258,10.246
	c2.478,2.108,3.435,5.506,2.422,8.598l-3.477,10.57c3.854,2.621,7.879,4.983,12.047,7.07l7.516-8.391
	c2.177-2.418,5.598-3.285,8.664-2.195c4.537,1.636,9.201,2.892,13.945,3.758c3.203,0.58,5.735,3.042,6.406,6.227L240.855,303.093z"
	/>
<path d="M248.003,272.007c-39.764,0-72-32.236-72-72s32.236-72,72-72s72,32.236,72,72
	C319.958,239.753,287.749,271.962,248.003,272.007z M248.003,144.007c-30.928,0-56,25.072-56,56s25.072,56,56,56s56-25.072,56-56
	C303.967,169.094,278.916,144.043,248.003,144.007z"/>
<path d="M232.003,240.007c-4.417,0.001-7.999-3.58-8-7.997c0-0.001,0-0.002,0-0.003v-64c0-4.418,3.581-8,7.999-8
	c1.58,0,3.124,0.468,4.439,1.344l48,32c3.676,2.451,4.67,7.417,2.219,11.093c-0.586,0.879-1.34,1.633-2.219,2.219l-48,32
	C235.127,239.54,233.582,240.007,232.003,240.007L232.003,240.007z M240.003,182.956v34.102l25.578-17.051L240.003,182.956z"/>
<path d="M440.003,480.007h-240c-4.417,0.001-7.999-3.579-8-7.996c0-0.001,0-0.003,0-0.004v-80h-104
	c-4.417,0.001-7.999-3.579-8-7.996c0-0.001,0-0.003,0-0.004v-80h-40c-4.419-0.002-8.001-3.586-7.999-8.005
	c0-0.439,0.037-0.878,0.109-1.311l15.891-95.406C48.399,88.828,138.262-0.394,248.719,0.001
	c110.158,0.395,199.257,89.792,199.284,199.951v272.055c0.001,4.417-3.579,7.999-7.996,8
	C440.006,480.007,440.004,480.007,440.003,480.007z M208.003,464.007h224V199.952c0-101.62-82.38-184-184-184s-184,82.38-184,184
	c-0.001,0.44-0.038,0.879-0.109,1.313l-14.445,86.742h38.555c4.417-0.001,7.999,3.579,8,7.996c0,0.001,0,0.003,0,0.004v80h104
	c4.417-0.001,7.999,3.579,8,7.996c0,0.001,0,0.003,0,0.004V464.007z"/>
<g>
</g>
<g>
</g>
<g>
</g>
<g>
</g>
<g>
</g>
<g>
</g>
<g>
</g>
<g>
</g>
<g>
</g>
<g>
</g>
<g>
</g>
<g>
</g>
<g>
</g>
<g>
</g>
<g>
</g>
</svg>
