<?xml version="1.0" encoding="iso-8859-1"?>
<!-- Generator: Adobe Illustrator 17.1.0, SVG Export Plug-In . SVG Version: 6.00 Build 0)  -->
<!DOCTYPE svg PUBLIC "-//W3C//DTD SVG 1.1//EN" "http://www.w3.org/Graphics/SVG/1.1/DTD/svg11.dtd">
<svg version="1.1" id="Capa_1" xmlns="http://www.w3.org/2000/svg" xmlns:xlink="http://www.w3.org/1999/xlink" x="0px" y="0px"
	 viewBox="0 0 439.341 439.341" style="enable-background:new 0 0 439.341 439.341;" xml:space="preserve">
<g>
	<path style="fill:#E85512;" d="M386.369,369.67c5.514,0,10-4.486,10-10v-92.818c-17.078,10.359-38.054,15.965-60.52,15.965
		c-15.677,0-30.63-2.728-44.041-7.894v84.748c0,5.514,4.486,10,10,10H386.369z M319.023,315.321c-3.905-3.905-3.905-10.237,0-14.143
		c3.905-3.904,10.237-3.904,14.143,0l10.922,10.922l10.922-10.922c3.905-3.904,10.237-3.904,14.143,0
		c3.905,3.905,3.905,10.237,0,14.143l-10.922,10.922l10.922,10.922c3.905,3.905,3.905,10.237,0,14.143
		c-1.953,1.952-4.512,2.929-7.071,2.929c-2.559,0-5.119-0.977-7.071-2.929l-10.922-10.922l-10.922,10.922
		c-1.953,1.952-4.512,2.929-7.071,2.929c-2.559,0-5.119-0.977-7.071-2.929c-3.905-3.905-3.905-10.237,0-14.143l10.922-10.922
		L319.023,315.321z"/>
	<path style="fill:#E85512;" d="M356.507,69.67c-30.159,0-55.691,21.735-61.539,50.358h26.192c17.959,0,33.104,12.255,37.528,28.84
		h30.654c5.523,0,10,4.478,10,10c0,5.523-4.477,10-10,10h-30.654c-4.424,16.585-19.569,28.839-37.528,28.839h-26.297v15.07
		c0,5.522-4.477,10-10,10c-5.523,0-10-4.478-10-10v-25.07c0-5.522,4.477-10,10-10h36.297c10.388,0,18.839-8.451,18.839-18.839
		c0-10.389-8.451-18.84-18.839-18.84h-26.268c-2.987,0-5.964,0.319-8.856,0.938c-0.064,0.015-0.126,0.036-0.19,0.05
		c-19.405,4.252-33.489,21.725-33.489,41.546v7.061c0,43.095,34.333,73.193,83.492,73.193s83.492-30.099,83.492-73.193v-57.119
		C419.341,97.858,391.154,69.67,356.507,69.67z"/>
	<path style="fill:#FFFFFF;" d="M319.023,351.308c1.953,1.952,4.512,2.929,7.071,2.929c2.559,0,5.119-0.977,7.071-2.929
		l10.922-10.922l10.922,10.922c1.953,1.952,4.512,2.929,7.071,2.929c2.559,0,5.119-0.977,7.071-2.929
		c3.905-3.905,3.905-10.237,0-14.143l-10.922-10.922l10.922-10.922c3.905-3.905,3.905-10.237,0-14.143
		c-3.905-3.904-10.237-3.904-14.143,0l-10.922,10.922l-10.922-10.922c-3.905-3.904-10.237-3.904-14.143,0
		c-3.905,3.905-3.905,10.237,0,14.143l10.922,10.922l-10.922,10.922C315.118,341.071,315.118,347.403,319.023,351.308z"/>
	<path style="fill:#E85512;" d="M153.495,141.016c-0.06-0.013-0.117-0.033-0.177-0.047c-2.896-0.621-5.878-0.94-8.869-0.94h-26.268
		c-10.388,0-18.839,8.451-18.839,18.84c0,10.388,8.451,18.839,18.839,18.839h36.297c5.523,0,10,4.478,10,10v25.07
		c0,5.522-4.477,10-10,10c-5.523,0-10-4.478-10-10v-15.07h-26.297c-17.959,0-33.104-12.254-37.528-28.839H50
		c-5.523,0-10-4.477-10-10c0-5.522,4.477-10,10-10h30.654c4.424-16.584,19.569-28.84,37.528-28.84h26.192
		c-5.848-28.623-31.38-50.358-61.539-50.358C48.187,69.67,20,97.858,20,132.504v57.119c0,43.095,34.333,73.193,83.492,73.193
		c49.159-0.001,83.492-30.1,83.492-73.193v-7.061C186.984,162.741,172.9,145.268,153.495,141.016z"/>
	<path style="fill:#E85512;" d="M42.972,266.852v92.818c0,5.514,4.486,10,10,10h84.561c5.514,0,10-4.486,10-10v-84.748
		c-13.411,5.165-28.364,7.894-44.041,7.895C81.026,282.817,60.051,277.211,42.972,266.852z M120.318,301.178
		c3.905,3.905,3.905,10.237,0,14.143l-10.922,10.922l10.922,10.922c3.905,3.905,3.905,10.237,0,14.143
		c-1.953,1.952-4.512,2.929-7.071,2.929s-5.119-0.977-7.071-2.929l-10.922-10.922l-10.922,10.922
		c-1.953,1.952-4.512,2.929-7.071,2.929c-2.559,0-5.119-0.977-7.071-2.929c-3.905-3.905-3.905-10.237,0-14.143l10.922-10.922
		l-10.922-10.922c-3.905-3.905-3.905-10.237,0-14.143c3.905-3.904,10.237-3.904,14.143,0l10.922,10.922l10.922-10.922
		C110.081,297.274,116.413,297.274,120.318,301.178z"/>
	<path style="fill:#FFFFFF;" d="M84.331,301.178c-3.905-3.904-10.237-3.904-14.143,0c-3.905,3.905-3.905,10.237,0,14.143
		l10.922,10.922l-10.922,10.922c-3.905,3.905-3.905,10.237,0,14.143c1.953,1.952,4.512,2.929,7.071,2.929
		c2.559,0,5.119-0.977,7.071-2.929l10.922-10.922l10.922,10.922c1.953,1.952,4.512,2.929,7.071,2.929s5.119-0.977,7.071-2.929
		c3.905-3.905,3.905-10.237,0-14.143l-10.922-10.922l10.922-10.922c3.905-3.905,3.905-10.237,0-14.143
		c-3.905-3.904-10.237-3.904-14.143,0l-10.922,10.922L84.331,301.178z"/>
	<path d="M356.507,49.67c-21.876,0-42.506,8.451-58.091,23.797c-13.77,13.559-22.226,31.136-24.249,50.125
		c-24.626,8.723-41.811,32.412-41.811,58.971v7.061c0,27.326,10.979,51.685,30.916,68.587c2.698,2.287,5.558,4.408,8.535,6.394
		v95.066c0,16.542,13.458,30,30,30h84.561c16.542,0,30-13.458,30-30V250.561c14.885-16.241,22.972-37.495,22.972-60.938v-57.119
		C439.341,86.83,402.182,49.67,356.507,49.67z M419.341,189.623c0,43.095-34.333,73.193-83.492,73.193s-83.492-30.099-83.492-73.193
		v-7.061c0-19.821,14.084-37.294,33.489-41.546c0.065-0.014,0.126-0.035,0.19-0.05c2.892-0.619,5.869-0.938,8.856-0.938h26.268
		c10.388,0,18.839,8.451,18.839,18.84c0,10.388-8.451,18.839-18.839,18.839h-36.297c-5.523,0-10,4.478-10,10v25.07
		c0,5.522,4.477,10,10,10c5.523,0,10-4.478,10-10v-15.07h26.297c17.959,0,33.104-12.254,37.528-28.839h30.654
		c5.523,0,10-4.477,10-10c0-5.522-4.477-10-10-10h-30.654c-4.424-16.584-19.569-28.84-37.528-28.84h-26.192
		c5.848-28.623,31.38-50.358,61.539-50.358c34.647,0,62.834,28.188,62.834,62.834V189.623z M291.808,359.67v-84.748
		c13.411,5.166,28.364,7.894,44.041,7.894c22.466,0,43.442-5.605,60.52-15.965v92.818c0,5.514-4.486,10-10,10h-84.561
		C296.293,369.67,291.808,365.184,291.808,359.67z"/>
	<path d="M165.174,123.591c-2.023-18.989-10.479-36.565-24.249-50.124C125.34,58.122,104.709,49.67,82.834,49.67
		C37.159,49.67,0,86.83,0,132.504v57.119c0,23.443,8.087,44.697,22.972,60.938V359.67c0,16.542,13.458,30,30,30h84.561
		c16.542,0,30-13.458,30-30v-95.066c2.977-1.986,5.837-4.107,8.535-6.394c19.937-16.903,30.917-41.261,30.917-68.587v-7.061
		C206.984,156.003,189.799,132.314,165.174,123.591z M186.984,189.623c0,43.094-34.334,73.192-83.492,73.193
		C54.333,262.817,20,232.718,20,189.623v-57.119C20,97.858,48.187,69.67,82.834,69.67c30.16,0,55.691,21.735,61.539,50.358h-26.192
		c-17.959,0-33.104,12.255-37.528,28.84H50c-5.523,0-10,4.478-10,10c0,5.523,4.477,10,10,10h30.654
		c4.424,16.585,19.569,28.839,37.528,28.839h26.297v15.07c0,5.522,4.477,10,10,10c5.523,0,10-4.478,10-10v-25.07
		c0-5.522-4.477-10-10-10h-36.297c-10.388,0-18.839-8.451-18.839-18.839c0-10.389,8.451-18.84,18.839-18.84h26.268
		c2.991,0,5.973,0.319,8.869,0.94c0.06,0.014,0.117,0.034,0.177,0.047c19.405,4.252,33.489,21.725,33.489,41.547V189.623z
		 M147.533,359.67c0,5.514-4.486,10-10,10H52.972c-5.514,0-10-4.486-10-10v-92.818c17.078,10.359,38.054,15.965,60.52,15.965
		c15.677,0,30.63-2.729,44.041-7.895V359.67z"/>
</g>
<g>
</g>
<g>
</g>
<g>
</g>
<g>
</g>
<g>
</g>
<g>
</g>
<g>
</g>
<g>
</g>
<g>
</g>
<g>
</g>
<g>
</g>
<g>
</g>
<g>
</g>
<g>
</g>
<g>
</g>
</svg>
