<?xml version="1.0" encoding="iso-8859-1"?>
<!-- Generator: Adobe Illustrator 19.0.0, SVG Export Plug-In . SVG Version: 6.00 Build 0)  -->
<svg version="1.1" id="Capa_1" xmlns="http://www.w3.org/2000/svg" xmlns:xlink="http://www.w3.org/1999/xlink" x="0px" y="0px"
	 viewBox="0 0 512 512" style="enable-background:new 0 0 512 512;" xml:space="preserve">
<path style="fill:#E9E3D5;" d="M325.022,30.905V339.96c0,17.069-13.836,30.905-30.905,30.905H132.378
	c-17.069,0-30.905-13.836-30.905-30.905V30.905C101.473,13.836,115.309,0,132.378,0h161.738
	C311.186,0,325.022,13.836,325.022,30.905z"/>
<path style="fill:#D3CDBF;" d="M132.378,370.865h161.738c17.069,0,30.905-13.836,30.905-30.905V30.905
	c0-11.437-6.218-21.416-15.453-26.761c-9.235,5.345-15.453,15.323-15.453,26.761V339.96H132.378
	c-11.437,0-21.416,6.218-26.761,15.453C110.962,364.647,120.941,370.865,132.378,370.865z"/>
<g>
	<path style="fill:#4D5967;" d="M278.094,175.753l-52.584-66.624c-6.255-7.925-18.272-7.925-24.528,0L148.4,175.753
		c-4.479,5.675-4.479,13.683,0,19.358l52.584,66.624c6.255,7.925,18.272,7.925,24.528,0l52.584-66.624
		C282.574,189.436,282.574,181.429,278.094,175.753z"/>
	<path style="fill:#4D5967;" d="M154.547,25.608c-1.131-3.015-4.014-5.014-7.234-5.014s-6.104,1.998-7.234,5.014l-17.384,46.358
		c-1.499,3.995,0.526,8.449,4.521,9.947c3.994,1.497,8.45-0.526,9.947-4.521l1.017-2.712h18.265l1.017,2.712
		c1.163,3.102,4.107,5.016,7.235,5.016c0.901,0,1.818-0.159,2.711-0.493c3.995-1.499,6.02-5.951,4.521-9.947L154.547,25.608z
		 M143.974,59.227l3.338-8.901l3.338,8.901H143.974z"/>
</g>
<path style="fill:#FFF9EB;" d="M410.527,172.04v309.054c0,17.069-13.836,30.905-30.905,30.905H217.883
	c-17.069,0-30.905-13.836-30.905-30.905V172.04c0-17.069,13.836-30.905,30.905-30.905h161.738
	C396.691,141.135,410.527,154.971,410.527,172.04z"/>
<path style="fill:#E9E3D5;" d="M217.883,512h161.738c17.069,0,30.905-13.836,30.905-30.905V172.04
	c0-11.437-6.218-21.416-15.453-26.761c-9.235,5.345-15.453,15.323-15.453,26.761v309.054H217.883
	c-11.437,0-21.416,6.218-26.761,15.453C196.467,505.782,206.446,512,217.883,512z"/>
<path style="fill:#FF5368;" d="M240.052,166.743c-1.131-3.015-4.014-5.014-7.234-5.014s-6.104,1.998-7.234,5.014L208.2,213.101
	c-1.499,3.995,0.526,8.449,4.521,9.947c3.994,1.497,8.45-0.526,9.947-4.521l1.017-2.712h18.265l1.017,2.712
	c1.163,3.102,4.107,5.016,7.235,5.016c0.901,0,1.818-0.159,2.711-0.493c3.995-1.499,6.02-5.951,4.521-9.947L240.052,166.743z
	 M229.479,200.362l3.338-8.901l3.338,8.901H229.479z"/>
<path style="fill:#C5324F;" d="M389.306,480.966l-17.384-46.358c-1.131-3.015-4.014-5.014-7.234-5.014
	c-3.22,0-6.104,1.997-7.234,5.014l-17.384,46.358c-1.499,3.995,0.526,8.448,4.521,9.947c3.996,1.498,8.45-0.526,9.947-4.521
	l1.017-2.712h18.265l1.017,2.712c1.163,3.102,4.107,5.016,7.235,5.016c0.901,0,1.818-0.159,2.711-0.493
	C388.781,489.414,390.805,484.961,389.306,480.966z M361.35,468.226l3.338-8.901l3.338,8.901H361.35z"/>
<path style="fill:#FF5368;" d="M361.394,277.633c-16.884-18.767-45.275-19.16-62.641-1.182
	c-17.367-17.979-45.758-17.585-62.641,1.182c-16.082,17.876-14.846,46.019,1.839,63.292l37.725,39.056
	c12.745,13.195,33.41,13.195,46.155,0l37.725-39.056C376.24,323.652,377.476,295.508,361.394,277.633z"/>
<path style="fill:#C5324F;" d="M361.394,277.633c-5.185-5.763-11.457-9.786-18.159-12.083c5.723,16.295,1.915,35.433-10.633,48.424
	l-37.725,39.056c-11.171,11.565-28.425,12.992-41.098,4.283l21.896,22.668c12.745,13.195,33.41,13.195,46.155,0l37.725-39.056
	C376.24,323.652,377.476,295.508,361.394,277.633z"/>
<g>
</g>
<g>
</g>
<g>
</g>
<g>
</g>
<g>
</g>
<g>
</g>
<g>
</g>
<g>
</g>
<g>
</g>
<g>
</g>
<g>
</g>
<g>
</g>
<g>
</g>
<g>
</g>
<g>
</g>
</svg>
