<?xml version="1.0" encoding="iso-8859-1"?>
<!-- Generator: Adobe Illustrator 19.0.0, SVG Export Plug-In . SVG Version: 6.00 Build 0)  -->
<svg version="1.1" id="Capa_1" xmlns="http://www.w3.org/2000/svg" xmlns:xlink="http://www.w3.org/1999/xlink" x="0px" y="0px"
	 viewBox="0 0 512 512" style="enable-background:new 0 0 512 512;" xml:space="preserve">
<path style="fill:#FFFFFF;" d="M379.035,293.064c51.528,0,95.648-13.192,113.96-31.905l9.053-0.047v163.612
	c0,28.285-55.074,51.214-123.013,51.214c-67.936,0-123.012-22.93-123.012-51.214V262.392l10.25-0.053
	C285.259,280.424,328.599,293.064,379.035,293.064z"/>
<g>
	<path style="fill:#FFC44D;" d="M257.918,371.838c10.216,23.994,60.555,42.216,121.117,42.215v62.086l0,0
		c-67.937,0-123.012-22.93-123.012-51.214v-53.087H257.918z"/>
	<path style="fill:#FFC44D;" d="M257.918,249.388c10.216,23.994,60.555,42.215,121.117,42.215l0,0v62.086l0,0
		c-67.937,0-123.012-22.93-123.012-51.214v-53.087H257.918z"/>
</g>
<path style="fill:#FFFFFF;" d="M379.035,352.252c67.939,0,123.013-22.93,123.013-51.214v62.086
	c0,28.285-55.074,51.214-123.013,51.214c-67.936,0-123.012-22.93-123.012-51.214v-62.086
	C256.023,329.322,311.098,352.252,379.035,352.252z"/>
<path style="fill:#FFC44D;" d="M458.25,402.303c-21.402,7.508-49.037,12.036-79.215,12.036c-30.166,0-57.791-4.524-79.19-12.027
	v-62.086c21.399,7.503,49.023,12.027,79.19,12.027c30.178,0,57.813-4.528,79.215-12.036V402.303z"/>
<ellipse style="fill:#FFFFFF;" cx="379.035" cy="241.168" rx="122.919" ry="51.899"/>
<g>
	<path style="fill:#FFC44D;" d="M339.133,223.733c11.599-1.933,25.264-3.052,39.902-3.052c12.311,0,23.927,0.794,34.212,2.195
		l5.792-2.195l20.382-20.869l-7.379-5.486c-16.049-3.244-34.025-5.062-53.006-5.062c-21.781,0-42.234,2.396-59.975,6.591
		l-5.072,3.957l22.453,22.99L339.133,223.733z"/>
	<path style="fill:#FFC44D;" d="M418.938,258.595c-11.599,1.933-25.264,3.052-39.902,3.052c-12.311,0-23.927-0.794-34.212-2.195
		l-5.792,2.195l-20.382,20.869l7.379,5.487c16.05,3.244,34.025,5.062,53.006,5.062c21.781,0,42.234-2.396,59.975-6.591l5.072-3.957
		l-22.453-22.99L418.938,258.595z"/>
</g>
<g>
	<ellipse style="fill:#FFFFFF;" cx="379.035" cy="241.168" rx="75.993" ry="20.482"/>
	<path style="fill:#FFFFFF;" d="M132.964,293.064c51.528,0,95.648-13.192,113.96-31.905l9.053-0.047v163.612
		c0,28.285-55.074,51.214-123.013,51.214c-67.936,0-123.012-22.93-123.012-51.214V262.392l10.25-0.053
		C39.188,280.424,82.527,293.064,132.964,293.064z"/>
</g>
<g>
	<path style="fill:#366CBA;" d="M11.847,371.838c10.216,23.994,60.555,42.216,121.117,42.215v62.086l0,0
		c-67.936,0-123.012-22.93-123.012-51.214v-53.087H11.847z"/>
	<path style="fill:#366CBA;" d="M11.847,249.388c10.216,23.994,60.555,42.215,121.117,42.215l0,0v62.086l0,0
		c-67.936,0-123.012-22.93-123.012-51.214v-53.087H11.847z"/>
</g>
<path style="fill:#FFFFFF;" d="M132.964,352.252c67.939,0,123.013-22.93,123.013-51.214v62.086
	c0,28.285-55.074,51.214-123.013,51.214c-67.936,0-123.012-22.93-123.012-51.214v-62.086
	C9.952,329.322,65.028,352.252,132.964,352.252z"/>
<path style="fill:#366CBA;" d="M212.179,402.303c-21.402,7.508-49.036,12.036-79.215,12.036c-30.166,0-57.791-4.524-79.19-12.027
	v-62.086c21.399,7.503,49.023,12.027,79.19,12.027c30.178,0,57.813-4.528,79.215-12.036V402.303z"/>
<ellipse style="fill:#FFFFFF;" cx="132.968" cy="241.168" rx="122.919" ry="51.899"/>
<g>
	<path style="fill:#308EE2;" d="M93.062,223.733c11.599-1.933,25.264-3.052,39.902-3.052c12.311,0,23.927,0.794,34.212,2.195
		l5.792-2.195l20.382-20.869l-7.379-5.486c-16.05-3.244-34.025-5.062-53.006-5.062c-21.781,0-42.234,2.396-59.975,6.591
		l-5.072,3.957l22.453,22.99L93.062,223.733z"/>
	<path style="fill:#308EE2;" d="M172.866,258.595c-11.599,1.933-25.264,3.052-39.902,3.052c-12.311,0-23.927-0.794-34.212-2.195
		l-5.792,2.195l-20.382,20.869l7.379,5.487c16.05,3.244,34.025,5.062,53.006,5.062c21.781,0,42.234-2.396,59.975-6.591l5.072-3.957
		l-22.453-22.99L172.866,258.595z"/>
</g>
<g>
	<ellipse style="fill:#FFFFFF;" cx="132.968" cy="241.168" rx="75.993" ry="20.482"/>
	<path style="fill:#FFFFFF;" d="M256.403,139.86c51.528,0,95.648-13.192,113.96-31.905l9.053-0.047v105.889
		c0,28.285-55.074,51.214-123.013,51.214c-67.936,0-123.012-22.93-123.012-51.214V109.188l10.25-0.053
		C162.628,127.22,205.967,139.86,256.403,139.86z"/>
</g>
<g>
	<path style="fill:#30AA5B;" d="M335.618,251.113c-21.402,7.508-49.036,12.036-79.215,12.036c-30.166,0-57.791-4.524-79.19-12.027
		v-62.086c21.399,7.503,49.023,12.027,79.19,12.027c30.178,0,57.813-4.528,79.215-12.036V251.113z"/>
	<path style="fill:#30AA5B;" d="M135.287,96.184c10.216,23.994,60.555,42.215,121.117,42.215l0,0v62.086l0,0
		c-67.936,0-123.012-22.93-123.012-51.214V96.184H135.287z"/>
</g>
<ellipse style="fill:#FFFFFF;" cx="256.406" cy="87.96" rx="122.919" ry="51.899"/>
<g>
	<path style="fill:#30AA5B;" d="M216.502,70.529c11.599-1.933,25.264-3.052,39.902-3.052c12.311,0,23.927,0.794,34.212,2.195
		l5.792-2.195l20.382-20.869l-7.379-5.486c-16.049-3.244-34.025-5.062-53.006-5.062c-21.781,0-42.234,2.396-59.976,6.591
		l-5.072,3.957l22.453,22.99L216.502,70.529z"/>
	<path style="fill:#30AA5B;" d="M296.306,105.392c-11.599,1.933-25.264,3.052-39.902,3.052c-12.311,0-23.927-0.794-34.212-2.195
		l-5.792,2.195l-20.382,20.869l7.379,5.486c16.05,3.244,34.025,5.062,53.006,5.062c21.781,0,42.234-2.396,59.975-6.591l5.072-3.957
		l-22.453-22.99L296.306,105.392z"/>
</g>
<ellipse style="fill:#FFFFFF;" cx="256.406" cy="87.96" rx="75.993" ry="20.482"/>
<path d="M133.008,281.713c-5.522,0-9.999,4.5-9.999,10.022c0,5.522,4.477,9.999,9.999,9.999c5.522,0,9.999-4.477,9.999-9.999v-0.047
	C143.007,286.166,138.529,281.713,133.008,281.713z"/>
<path d="M133.008,404.237c-5.522,0-9.999,4.5-9.999,10.022s4.477,9.999,9.999,9.999c5.522,0,9.999-4.477,9.999-9.999v-0.047
	C143.007,408.69,138.529,404.237,133.008,404.237z"/>
<path d="M512,240.478c0-17.976-14.977-34.113-42.169-45.439c-22.025-9.173-50.431-14.614-80.843-15.598v-31.075
	c0,0,0-60.054,0-60.997c0-18.002-14.98-34.164-42.179-45.51c-24.426-10.188-56.684-15.799-90.833-15.799
	c-34.148,0-66.406,5.61-90.831,15.799c-27.201,11.345-42.18,27.507-42.18,45.51c0,0.625,0,92.075,0,92.075
	c-30.394,0.988-58.783,6.428-80.796,15.597C14.977,206.366,0,222.502,0,240.478c0,0.793,0,184.247,0,184.247
	c0,17.979,14.982,34.12,42.185,45.445c24.424,10.168,56.68,15.769,90.826,15.769s66.402-5.6,90.825-15.769
	c14.17-5.899,25.016-13.107,32.163-21.198c7.147,8.091,17.993,15.3,32.163,21.198c24.424,10.168,56.68,15.769,90.825,15.769
	c34.147,0,66.403-5.6,90.826-15.769c27.204-11.326,42.185-27.465,42.185-45.445C512,424.726,512,241.271,512,240.478z
	 M492.002,363.003c0,7.705-8.153,16.685-23.777,24.314v-39.876c0.527-0.212,1.07-0.415,1.59-0.631
	c8.668-3.609,16.091-7.708,22.187-12.199V363.003z M379.035,308.232c-5.523,0-9.999,4.477-9.999,9.999v24.172
	c-58.533-2.046-101.463-21.85-103.014-40.024v-1.015V273.75c17.042,12.475,44.277,21.714,76.361,25.717
	c0.42,0.053,0.837,0.078,1.25,0.078c4.971,0,9.278-3.703,9.909-8.762c0.573-4.587-2.064-8.824-6.15-10.488l7.604-9.628
	c7.607,0.641,15.652,0.979,23.992,0.979c9.807,0,19.36-0.49,28.307-1.417l7.266,9.201c-0.484,0.063-0.955,0.133-1.443,0.193
	c-5.479,0.684-9.368,5.68-8.684,11.16c0.631,5.06,4.939,8.762,9.909,8.762c0.413,0,0.831-0.025,1.251-0.078
	c33.142-4.136,59.639-13.349,76.405-25.736v27.633c0,18.434-43.392,38.933-102.968,41.035v-24.169
	C389.034,312.709,384.558,308.232,379.035,308.232z M266.023,363.782v-29.137c6.088,4.477,13.495,8.564,22.141,12.164
	c0.55,0.229,1.125,0.443,1.683,0.668v39.885C274.684,379.979,266.548,371.325,266.023,363.782z M133.011,308.232
	c-5.522,0-9.999,4.477-9.999,9.999v24.17c-59.6-2.094-103.014-22.598-103.014-41.037V273.73
	c16.766,12.387,43.263,21.601,76.405,25.736c0.42,0.053,0.838,0.078,1.251,0.078c4.971,0,9.278-3.703,9.909-8.762
	c0.684-5.479-3.205-10.477-8.684-11.16c-5.43-0.678-10.58-1.499-15.476-2.43l9.52-8.496c12.091,1.921,25.826,2.949,40.087,2.949
	c13.238,0,25.751-0.839,36.902-2.423l9.563,8.533c-4.011,0.715-8.127,1.342-12.335,1.867c-5.479,0.684-9.368,5.68-8.684,11.16
	c0.631,5.061,4.939,8.762,9.909,8.762c0.413,0,0.831-0.025,1.25-0.078c32.084-4.003,59.319-13.242,76.361-25.717v27.613v1.015
	c-1.551,18.169-44.459,37.968-102.968,40.022v-24.169C143.01,312.709,138.533,308.232,133.011,308.232z M19.998,363.003V334.61
	c6.097,4.491,13.519,8.59,22.187,12.199c0.535,0.223,1.094,0.431,1.636,0.649v39.88C28.167,379.706,19.998,370.716,19.998,363.003z
	 M129.869,230.697c5.305,7.448,13.59,14.248,24.583,20.103c-6.818,0.552-14.026,0.846-21.44,0.846
	c-34.501,0-56.649-6.114-64.072-10.483C76.135,236.929,97.164,231.054,129.869,230.697z M255.977,77.534
	c34.557,0,56.713,6.143,64.099,10.521c-7.386,4.379-29.542,10.522-64.099,10.522s-56.713-6.143-64.099-10.521
	C199.264,83.678,221.42,77.534,255.977,77.534z M219.367,146.448c5.475,0.687,10.477-3.203,11.162-8.682s-3.202-10.477-8.682-11.162
	c-3.886-0.486-7.618-1.049-11.231-1.668l8.833-8.781c11.199,1.58,23.647,2.421,36.528,2.421c11.322,0,22.307-0.653,32.408-1.882
	l8.946,8.894c-2.36,0.364-4.758,0.709-7.227,1.018c-5.479,0.685-9.367,5.682-8.682,11.162c0.632,5.06,4.94,8.76,9.909,8.76
	c0.414,0,0.832-0.025,1.253-0.078c33.143-4.143,59.639-13.371,76.406-25.778v27.696c0,18.437-43.207,38.935-102.587,41.116v-22.16
	c0-5.522-4.477-9.999-9.999-9.999c-5.523,0-9.999,4.477-9.999,9.999v22.191c-59.821-2.015-103.441-22.622-103.441-41.148v-27.696
	C159.729,133.077,186.225,142.305,219.367,146.448z M443.06,241.163c-7.423,4.369-29.57,10.483-64.072,10.483
	c-7.429,0-14.651-0.296-21.481-0.85c10.99-5.854,19.274-12.653,24.577-20.1C414.815,231.049,435.862,236.927,443.06,241.163z
	 M461.639,251.029h25.79c-7.637,9.145-24.766,18.445-50.528,24.415l-6.964-8.818c1.854-0.419,3.658-0.859,5.391-1.326
	C448.425,261.771,457.219,256.991,461.639,251.029z M325.065,276.298c-9.66-2.067-18.554-4.678-26.377-7.715
	c7.31-1.084,14.369-2.455,21.121-4.086c3.743,1.132,7.827,2.137,12.198,3.012L325.065,276.298z M203.168,272.097l-7.604-6.785
	c5.713,1.283,11.643,2.375,17.735,3.277C210.095,269.831,206.712,271.004,203.168,272.097z M255.977,209.676
	c25.002,0,48.976-3.02,69.619-8.629v41.105c-18.899,5.759-42.856,9.495-69.619,9.495c-26.359,0-50-3.623-68.765-9.234v-41.139
	C207.663,206.737,231.318,209.676,255.977,209.676z M368.989,210.336c0,8.225-8.598,16.861-23.396,24.099v-40.074
	c0.401-0.163,0.817-0.317,1.214-0.483c8.666-3.615,16.086-7.72,22.182-12.217L368.989,210.336L368.989,210.336z M165.145,193.878
	c0.677,0.282,1.382,0.548,2.07,0.823v40.143c-15.317-7.319-24.251-16.126-24.251-24.508v-28.675
	C149.059,186.157,156.479,190.263,165.145,193.878z M223.836,346.81c8.646-3.6,16.053-7.687,22.141-12.164v29.137
	c-0.525,7.536-8.645,16.18-23.777,23.558v-39.882C222.743,347.241,223.302,347.032,223.836,346.81z M488.391,231.031h-26.946
	c-4.483-5.837-13.215-10.528-26.12-14.006c-1.123-0.303-2.28-0.592-3.454-0.874l7.803-9.881
	C463.734,212.285,481.215,221.472,488.391,231.031z M417.592,201.968l-8.177,10.353c-6.512-0.734-13.379-1.223-20.441-1.464
	c0.003-0.174,0.014-0.347,0.014-0.521v-10.895C399.025,199.794,408.603,200.669,417.592,201.968z M368.989,87.369
	c0,11.069-16.712,24.764-48.217,33.323l-8.509-8.459c0.018-0.005,0.037-0.009,0.055-0.014c19.674-5.313,29.65-13.443,29.65-24.163
	c0-10.307-9.226-18.218-27.423-23.535l9.491-9.435C351.728,63.242,368.989,75.718,368.989,87.369z M301.002,49.786l-10.022,9.963
	c-10.801-1.445-22.705-2.213-35.004-2.213c-13.867,0-27.23,0.976-39.075,2.799l-9.888-9.83c14.645-2.795,31.184-4.446,48.963-4.446
	C272.178,46.059,287.355,47.428,301.002,49.786z M184.354,56.178l9.506,9.45c-15.847,5.284-23.876,12.813-23.876,22.428
	c0,10.053,8.772,17.828,26.089,23.139l-8.522,8.472c-29.157-8.6-44.588-21.661-44.588-32.297
	C142.964,76.226,158.753,64.33,184.354,56.178z M122.979,210.859c-11.713,0.401-22.864,1.503-32.797,3.23l-10.63-9.486
	c13-2.758,27.638-4.604,43.413-5.161v10.893C122.966,210.511,122.976,210.685,122.979,210.859z M56.633,210.952l10.335,9.223
	c-13.245,5.174-19.948,12.21-19.948,20.988c0,9.271,7.479,16.6,22.246,21.843l-9.261,8.264
	c-26.183-8.552-40.006-20.754-40.006-30.792C19.998,230.068,33.847,218.996,56.633,210.952z M143.01,465.763v-21.21
	c0-5.522-4.477-9.999-9.999-9.999s-9.999,4.477-9.999,9.999v21.21c-59.6-2.093-103.014-22.598-103.014-41.037v-28.471
	c16.766,12.388,43.263,21.601,76.405,25.737c0.42,0.053,0.838,0.078,1.251,0.078c4.97,0,9.278-3.703,9.909-8.762
	c0.684-5.48-3.204-10.477-8.684-11.16c-13.307-1.661-25.007-4.146-35.06-7.156v-40.913c20.547,5.525,44.361,8.5,69.193,8.5
	c24.83,0,48.645-2.975,69.191-8.5v40.913c-10.054,3.011-21.754,5.495-35.061,7.156c-5.479,0.684-9.368,5.68-8.684,11.16
	c0.631,5.061,4.939,8.762,9.909,8.762c0.413,0,0.831-0.025,1.25-0.078c33.112-4.131,59.593-13.33,76.361-25.7v28.435
	c0,0.242,0.013,0.483,0.019,0.725C244.881,443.699,201.83,463.698,143.01,465.763z M389.034,465.762v-21.209
	c0-5.522-4.477-9.999-9.999-9.999c-5.523,0-9.999,4.477-9.999,9.999v21.212c-58.844-2.057-101.917-22.062-103.033-40.314
	c0.005-0.242,0.019-0.482,0.019-0.725V396.29c16.769,12.37,43.249,21.569,76.361,25.7c0.42,0.053,0.837,0.078,1.25,0.078
	c4.971,0,9.278-3.703,9.909-8.762c0.684-5.48-3.205-10.476-8.684-11.16c-13.287-1.658-24.972-4.138-35.015-7.142v-40.915
	c20.536,5.517,44.333,8.488,69.144,8.488c24.85,0,48.682-2.979,69.239-8.512v40.911c-10.064,3.018-21.779,5.508-35.106,7.17
	c-5.479,0.684-9.368,5.68-8.684,11.16c0.631,5.06,4.939,8.762,9.909,8.762c0.413,0,0.831-0.025,1.251-0.078
	c33.142-4.136,59.639-13.349,76.405-25.737v28.471C492.002,443.16,448.61,463.659,389.034,465.762z"/>
<path d="M378.992,281.713c-5.522,0-9.999,4.5-9.999,10.022c0,5.522,4.477,9.999,9.999,9.999s9.999-4.477,9.999-9.999v-0.047
	C388.991,286.166,384.515,281.713,378.992,281.713z"/>
<path d="M378.992,404.237c-5.522,0-9.999,4.5-9.999,10.022s4.477,9.999,9.999,9.999s9.999-4.477,9.999-9.999v-0.047
	C388.991,408.69,384.515,404.237,378.992,404.237z"/>
<path d="M255.973,148.72c5.522,0,9.999-4.477,9.999-9.999v-0.047c0-5.522-4.477-9.976-9.999-9.976c-5.523,0-9.999,4.5-9.999,10.022
	S250.45,148.72,255.973,148.72z"/>
<g>
</g>
<g>
</g>
<g>
</g>
<g>
</g>
<g>
</g>
<g>
</g>
<g>
</g>
<g>
</g>
<g>
</g>
<g>
</g>
<g>
</g>
<g>
</g>
<g>
</g>
<g>
</g>
<g>
</g>
</svg>
