<?xml version="1.0" encoding="iso-8859-1"?>
<!-- Generator: Adobe Illustrator 19.0.0, SVG Export Plug-In . SVG Version: 6.00 Build 0)  -->
<svg version="1.1" id="Capa_1" xmlns="http://www.w3.org/2000/svg" xmlns:xlink="http://www.w3.org/1999/xlink" x="0px" y="0px"
	 viewBox="0 0 512 512" style="enable-background:new 0 0 512 512;" xml:space="preserve">
<circle style="fill:#9330B2;" cx="256" cy="256" r="256"/>
<path style="fill:#5C1B6F;" d="M503.08,323.159L283.905,103.598c-8.215-8.063-19.45-13.058-31.795-13.058H136.72
	c-25,0-45.46,20.46-45.46,45.47v115.38c0,12.608,5.206,24.053,13.568,32.308c0,0,139.221,139.296,219.234,219.138
	C411.032,478.908,479.461,410.258,503.08,323.159z"/>
<path style="fill:#54FBFF;" d="M430.45,349.57l-81.59,81.59c-17.69,17.68-46.62,17.68-64.3,0l-40.79-40.79h-0.01l-40.79-40.8
	c-17.69-17.68-17.69-46.62,0-64.3l81.59-81.59c17.68-17.68,46.61-17.68,64.3,0l40.79,40.8l40.8,40.79c0.14,0.14,0.28,0.28,0.41,0.42
	l0.41,0.42C448.13,303.85,447.85,332.17,430.45,349.57z"/>
<path style="fill:#00D9E0;" d="M430.45,349.57l-81.59,81.59c-17.69,17.68-46.62,17.68-64.3,0l-40.79-40.79l145.88-145.89
	l41.21,41.21l0.41,0.42C448.13,303.85,447.85,332.17,430.45,349.57z"/>
<circle style="fill:#FF0435;" cx="316.71" cy="317.42" r="21.793"/>
<path style="fill:#990011;" d="M332.116,332.836c-8.507,8.507-22.306,8.507-30.82-0.008l30.82-30.82
	C340.63,310.522,340.63,324.322,332.116,332.836z"/>
<g>
	<circle style="fill:#FF0435;" cx="236.44" cy="316.62" r="21.793"/>
	<circle style="fill:#FF0435;" cx="315.81" cy="237.06" r="21.793"/>
</g>
<g>
	<circle style="fill:#990011;" cx="317.61" cy="397.79" r="21.793"/>
	<circle style="fill:#990011;" cx="396.98" cy="318.23" r="21.793"/>
</g>
<path style="fill:#FFFFFF;" d="M297.58,136.01v115.38c0,0.39,0,0.78-0.01,1.17c-0.63,24.47-20.85,44.3-45.46,44.3H136.72
	c-25,0-45.46-20.46-45.46-45.47V136.01c0-25.01,20.46-45.47,45.46-45.47h115.39c24.61,0,44.83,19.83,45.46,44.3
	C297.58,135.23,297.58,135.62,297.58,136.01z"/>
<path style="fill:#FFEC97;" d="M297.57,134.84v117.72c-0.63,24.47-20.85,44.3-45.46,44.3h-57.7V90.54h57.7
	C276.72,90.54,296.94,110.37,297.57,134.84z"/>
<circle style="fill:#FF0435;" cx="194.41" cy="193.7" r="33.778"/>
<path style="fill:#990011;" d="M228.189,193.702c0,18.652-15.123,33.774-33.775,33.774v-67.56
	C213.067,159.917,228.189,175.04,228.189,193.702z"/>
<g>
</g>
<g>
</g>
<g>
</g>
<g>
</g>
<g>
</g>
<g>
</g>
<g>
</g>
<g>
</g>
<g>
</g>
<g>
</g>
<g>
</g>
<g>
</g>
<g>
</g>
<g>
</g>
<g>
</g>
</svg>
