<?xml version="1.0" encoding="iso-8859-1"?>
<!-- Generator: Adobe Illustrator 21.0.0, SVG Export Plug-In . SVG Version: 6.00 Build 0)  -->
<svg version="1.1" id="Capa_1" xmlns="http://www.w3.org/2000/svg" xmlns:xlink="http://www.w3.org/1999/xlink" x="0px" y="0px"
	 viewBox="0 0 512 512" style="enable-background:new 0 0 512 512;" xml:space="preserve">
<path style="fill:#4A5359;" d="M116.398,364.38H22.402c-8.23,0-14.902-6.672-14.902-14.902V162.522
	c0-8.23,6.672-14.902,14.902-14.902h93.995c8.23,0,14.902,6.672,14.902,14.902v186.956C131.3,357.708,124.628,364.38,116.398,364.38
	z"/>
<path style="fill:#363F44;" d="M27.5,349.478V162.522c0-8.23,6.672-14.902,14.902-14.902h-20c-8.23,0-14.902,6.672-14.902,14.902
	v186.956c0,8.23,6.672,14.902,14.902,14.902h20C34.172,364.38,27.5,357.708,27.5,349.478z"/>
<path style="fill:#4A5359;" d="M395.602,364.38h93.995c8.23,0,14.902-6.672,14.902-14.902V162.522
	c0-8.23-6.672-14.902-14.902-14.902h-93.995c-8.23,0-14.902,6.672-14.902,14.902v186.956
	C380.7,357.708,387.372,364.38,395.602,364.38z"/>
<path style="fill:#363F44;" d="M462.6,349.478V162.522c0-8.23,6.672-14.902,14.903-14.902h-81.9c-8.23,0-14.903,6.672-14.903,14.902
	v186.956c0,8.23,6.672,14.902,14.903,14.902h81.9C469.272,364.38,462.6,357.708,462.6,349.478z"/>
<rect x="110.67" y="209.34" style="fill:#F2F3F3;" width="290.67" height="75.23"/>
<rect x="110.67" y="209.34" style="fill:#E8E9EA;" width="61.08" height="75.23"/>
<path style="fill:#4A5359;" d="M137.031,418.944H84.303c-8.23,0-14.902-6.672-14.902-14.902V107.959
	c0-8.23,6.672-14.902,14.902-14.902h52.729c8.23,0,14.902,6.672,14.902,14.902v296.083
	C151.934,412.272,145.262,418.944,137.031,418.944z"/>
<path style="fill:#363F44;" d="M89.4,404.041V107.959c0-8.23,6.672-14.902,14.902-14.902h-20c-8.23,0-14.902,6.672-14.902,14.902
	v296.083c0,8.23,6.672,14.903,14.902,14.903h20C96.072,418.944,89.4,412.272,89.4,404.041z"/>
<path style="fill:#4A5359;" d="M374.969,418.944h52.729c8.23,0,14.902-6.672,14.902-14.902V107.959
	c0-8.23-6.672-14.902-14.902-14.902h-52.729c-8.23,0-14.902,6.672-14.902,14.902v296.083
	C360.066,412.272,366.738,418.944,374.969,418.944z"/>
<path style="fill:#363F44;" d="M380.066,404.041V107.959c0-8.23,6.672-14.902,14.902-14.903h-20c-8.23,0-14.902,6.672-14.902,14.903
	v296.083c0,8.23,6.672,14.902,14.902,14.902h20C386.739,418.944,380.066,412.272,380.066,404.041z"/>
<path d="M489.598,140.12H450.1v-32.161c0-12.353-10.05-22.402-22.402-22.402h-52.729c-12.353,0-22.402,10.05-22.402,22.402v93.881
	H159.434v-93.881c0-12.353-10.05-22.402-22.402-22.402H84.303c-12.353,0-22.403,10.05-22.403,22.402v32.161H22.402
	C10.05,140.12,0,150.169,0,162.522v186.956c0,12.353,10.05,22.402,22.402,22.402H61.9v32.161c0,12.353,10.05,22.402,22.403,22.402
	h52.729c12.353,0,22.402-10.05,22.402-22.402V292.073h193.133v111.968c0,12.353,10.05,22.402,22.402,22.402h52.729
	c12.353,0,22.402-10.05,22.402-22.402V371.88h39.498c12.353,0,22.402-10.05,22.402-22.402V162.522
	C512,150.169,501.95,140.12,489.598,140.12z M248.337,216.84h15.325v60.233h-15.325L248.337,216.84L248.337,216.84z
	 M233.337,277.073h-15.325V216.84h15.325V277.073z M278.662,216.84h15.325v60.233h-15.325V216.84z M144.434,404.042
	c0,4.082-3.321,7.402-7.402,7.402H84.303c-4.082,0-7.403-3.321-7.403-7.402v-89.046c0-4.142-3.358-7.5-7.5-7.5s-7.5,3.358-7.5,7.5
	v41.885H22.402c-4.082,0-7.402-3.321-7.402-7.402V162.522c0-4.082,3.321-7.402,7.402-7.402H61.9v131.876c0,4.142,3.358,7.5,7.5,7.5
	s7.5-3.358,7.5-7.5V107.958c0-4.082,3.321-7.402,7.403-7.402h52.729c4.082,0,7.402,3.321,7.402,7.402L144.434,404.042
	L144.434,404.042z M159.434,216.84h43.579v60.233h-43.579V216.84z M308.987,277.073V216.84h43.579v60.233H308.987z M435.1,404.042
	c0,4.082-3.32,7.402-7.402,7.402h-52.729c-4.082,0-7.402-3.321-7.402-7.402V107.958c0-4.082,3.32-7.402,7.402-7.402h52.729
	c4.082,0,7.402,3.321,7.402,7.402V404.042z M497,349.478c0,4.082-3.32,7.402-7.402,7.402H450.1V155.12h39.498
	c4.082,0,7.402,3.321,7.402,7.402L497,349.478L497,349.478z"/>
<g>
</g>
<g>
</g>
<g>
</g>
<g>
</g>
<g>
</g>
<g>
</g>
<g>
</g>
<g>
</g>
<g>
</g>
<g>
</g>
<g>
</g>
<g>
</g>
<g>
</g>
<g>
</g>
<g>
</g>
</svg>
