<?xml version="1.0" encoding="iso-8859-1"?>
<!-- Generator: Adobe Illustrator 19.0.0, SVG Export Plug-In . SVG Version: 6.00 Build 0)  -->
<svg version="1.1" id="Capa_1" xmlns="http://www.w3.org/2000/svg" xmlns:xlink="http://www.w3.org/1999/xlink" x="0px" y="0px"
	 viewBox="0 0 512 512" style="enable-background:new 0 0 512 512;" xml:space="preserve">
<path style="fill:#D3B537;" d="M460.8,72.533h-9.66c-8.806,0-15.94,7.134-15.94,15.94v25.395v1.331l-42.667,34.133l-25.6,34.133
	L332.8,149.333h-36.369c1.408,5.461,2.236,11.162,2.236,17.067c0,37.7-30.566,68.267-68.267,68.267S162.133,204.1,162.133,166.4
	c0-5.905,0.828-11.605,2.236-17.067L76.8,115.2v-1.331V88.474c0-8.806-7.134-15.94-15.94-15.94H51.2
	c-24.371,0-40.917,18.833-42.667,42.667v68.267l25.6,25.6L8.533,243.2v153.6c0,28.279,22.921,51.2,51.2,51.2l59.733-34.133
	l17.067-34.133l34.133,34.133h51.2h68.267h51.2h34.133l17.067-25.6L452.267,448c28.279,0,51.2-22.921,51.2-51.2V115.2
	C501.717,91.366,485.171,72.533,460.8,72.533z"/>
<path style="fill:#F7E6A1;" d="M460.8,354.133h-9.66c-8.806,0-15.94-7.134-15.94-15.94v-66.082V115.2h-42.667l-25.6,34.133
	L332.8,115.2h-36.369H164.369H76.8v156.911v66.082c0,8.806-7.134,15.94-15.94,15.94H51.2c-24.371,0-40.917,18.833-42.667,42.667
	c0,28.279,22.921,51.2,51.2,51.2h59.733l17.067-34.133L170.667,448h51.2h68.267h51.2h34.133l17.067-25.6l59.733,25.6
	c28.279,0,51.2-22.921,51.2-51.2C501.717,372.966,485.171,354.133,460.8,354.133z"/>
<g>
	<path style="fill:#D3B537;" d="M76.8,88.474v25.395v158.242v66.082c0,8.806-7.134,15.94-15.94,15.94H51.2
		c-24.371,0-40.917,18.833-42.667,42.667V243.2l25.6-34.133l-25.6-25.6V115.2C10.283,91.366,26.829,72.533,51.2,72.533h9.66
		C69.666,72.533,76.8,79.667,76.8,88.474z"/>
	<path style="fill:#D3B537;" d="M435.2,88.474v25.395v158.242v66.082c0,8.806,7.134,15.94,15.94,15.94h9.66
		c24.371,0,40.917,18.833,42.667,42.667V115.2c-1.749-23.834-18.296-42.667-42.667-42.667h-9.66
		C442.334,72.533,435.2,79.667,435.2,88.474z"/>
</g>
<path style="fill:#556080;" d="M315.128,242.594c-2.185,0-4.369-0.836-6.033-2.5l-56.627-56.627c-3.337-3.337-3.337-8.73,0-12.066
	c3.337-3.337,8.73-3.337,12.066,0l56.627,56.627c3.337,3.337,3.337,8.73,0,12.066C319.488,241.758,317.312,242.594,315.128,242.594z
	"/>
<rect x="327.877" y="221.708" transform="matrix(-0.7071 0.7071 -0.7071 -0.7071 775.4519 206.5738)" style="fill:#7383BF;" width="34.133" height="84.36"/>
<circle style="fill:#C6E2F7;" cx="230.4" cy="132.267" r="68.267"/>
<g>
	<path style="fill:#4D007E;" d="M8.533,405.333c-0.102,0-0.213,0-0.316,0C3.635,405.154,0,401.391,0,396.8V243.2
		c0-1.843,0.597-3.644,1.707-5.12l21.154-28.211L2.492,189.5C0.896,187.904,0,185.728,0,183.467V115.2
		C2.21,84.796,23.253,64,51.2,64h9.66c13.491,0,24.474,10.982,24.474,24.474v249.719c0,13.491-10.982,24.474-24.474,24.474H51.2
		c-18.611,0-32.657,14.293-34.159,34.756C16.717,401.894,12.988,405.333,8.533,405.333z M17.067,246.042v112.614
		C25.975,350.387,37.794,345.6,51.2,345.6h9.66c4.079,0,7.407-3.328,7.407-7.407V88.474c0-4.079-3.328-7.407-7.407-7.407H51.2
		c-18.611,0-32.657,14.293-34.15,34.756l0.017,64.102l23.1,23.108c3.004,3.004,3.345,7.757,0.794,11.153L17.067,246.042z"/>
	<path style="fill:#4D007E;" d="M503.467,405.333c-4.446,0-8.175-3.439-8.508-7.91c-1.502-20.463-15.548-34.756-34.159-34.756h-9.66
		c-13.491,0-24.474-10.982-24.474-24.474V88.474C426.667,74.982,437.649,64,451.14,64h9.66c27.947,0,48.99,20.796,51.183,50.577
		L512,396.8c0,4.591-3.635,8.354-8.218,8.533C503.671,405.333,503.569,405.333,503.467,405.333z M451.14,81.067
		c-4.079,0-7.407,3.328-7.407,7.407v249.719c0,4.079,3.328,7.407,7.407,7.407h9.66c13.406,0,25.225,4.787,34.133,13.056V115.2
		c-1.476-19.84-15.522-34.133-34.133-34.133H451.14z"/>
	<path style="fill:#4D007E;" d="M151.791,327.125c-3.302,0-6.451-1.937-7.842-5.154c-1.203-2.799-2.244-5.359-3.157-7.62
		c-1.271-3.14-2.364-5.854-3.115-7.142c-2.355-4.079-0.964-9.301,3.115-11.657c4.087-2.364,9.293-0.964,11.657,3.115
		c1.348,2.33,2.586,5.402,4.156,9.284c0.87,2.15,1.86,4.591,3.012,7.262c1.86,4.326-0.137,9.353-4.454,11.213
		C154.061,326.903,152.917,327.125,151.791,327.125z"/>
	<path style="fill:#4D007E;" d="M279.194,410.931c-4.156,0-7.799-3.046-8.431-7.287c-0.691-4.659,2.526-9.003,7.194-9.694
		c9.532-1.417,19.123-4.463,28.518-9.062c4.241-2.082,9.344-0.324,11.418,3.908s0.324,9.344-3.908,11.418
		c-10.974,5.376-22.255,8.951-33.527,10.624C280.03,410.897,279.612,410.931,279.194,410.931z M246.724,410.01
		c-0.572,0-1.152-0.051-1.732-0.179c-11.059-2.287-22.118-6.46-32.862-12.425c-4.122-2.287-5.606-7.484-3.319-11.605
		c2.295-4.113,7.475-5.598,11.605-3.319c9.225,5.12,18.654,8.704,28.023,10.633c4.617,0.956,7.586,5.47,6.63,10.086
		C254.242,407.236,250.684,410.01,246.724,410.01z M189.577,379.742c-1.988,0-3.994-0.691-5.606-2.108
		c-8.789-7.671-16.614-16.282-23.27-25.583c-2.739-3.831-1.852-9.165,1.98-11.904c3.831-2.756,9.165-1.852,11.904,1.98
		c5.879,8.226,12.809,15.846,20.608,22.647c3.55,3.098,3.917,8.491,0.819,12.041C194.321,378.752,191.957,379.742,189.577,379.742z"
		/>
	<path style="fill:#4D007E;" d="M337.63,383.044c-2.423,0-4.83-1.024-6.519-3.021c-3.046-3.601-2.594-8.986,0.998-12.023
		c7.142-6.05,11.196-10.795,11.23-10.837c3.038-3.593,8.422-4.036,12.023-1.007c3.593,3.038,4.053,8.405,1.024,12.006
		c-0.196,0.23-4.915,5.811-13.252,12.86C341.538,382.379,339.575,383.044,337.63,383.044z"/>
	<path style="fill:#4D007E;" d="M119.467,285.867c-2.185,0-4.369-0.836-6.033-2.5c-3.337-3.337-3.337-8.73,0-12.066l42.667-42.667
		c3.337-3.337,8.73-3.337,12.066,0c3.337,3.337,3.337,8.73,0,12.066L125.5,283.366C123.836,285.03,121.651,285.867,119.467,285.867z
		"/>
	<path style="fill:#4D007E;" d="M162.133,285.867c-2.185,0-4.369-0.836-6.033-2.5L113.434,240.7c-3.337-3.337-3.337-8.73,0-12.066
		s8.73-3.337,12.066,0l42.667,42.667c3.337,3.337,3.337,8.73,0,12.066C166.502,285.03,164.318,285.867,162.133,285.867z"/>
	<path style="fill:#4D007E;" d="M230.4,209.067c-42.342,0-76.8-34.458-76.8-76.8s34.458-76.8,76.8-76.8s76.8,34.458,76.8,76.8
		S272.742,209.067,230.4,209.067z M230.4,72.533c-32.939,0-59.733,26.795-59.733,59.733S197.461,192,230.4,192
		s59.733-26.795,59.733-59.733S263.339,72.533,230.4,72.533z"/>
	<path style="fill:#4D007E;" d="M230.4,174.933c-23.526,0-42.667-19.14-42.667-42.667S206.874,89.6,230.4,89.6
		c4.71,0,8.533,3.823,8.533,8.533s-3.823,8.533-8.533,8.533c-14.114,0-25.6,11.486-25.6,25.6s11.486,25.6,25.6,25.6
		c4.71,0,8.533,3.823,8.533,8.533S235.11,174.933,230.4,174.933z"/>
	<path style="fill:#4D007E;" d="M315.128,242.594c-2.185,0-4.369-0.836-6.033-2.5l-42.061-42.061c-3.337-3.337-3.337-8.73,0-12.066
		c3.337-3.337,8.73-3.337,12.066,0l42.061,42.061c3.337,3.337,3.337,8.73,0,12.066C319.488,241.758,317.312,242.594,315.128,242.594
		z"/>
	<path style="fill:#4D007E;" d="M362.709,314.308c-2.185,0-4.369-0.836-6.033-2.5l-59.648-59.648c-3.337-3.337-3.337-8.73,0-12.066
		l24.141-24.141c3.337-3.337,8.73-3.337,12.066,0l59.648,59.648c3.337,3.337,3.337,8.73,0,12.066l-24.141,24.141
		C367.078,313.481,364.894,314.308,362.709,314.308z M315.128,246.127l47.582,47.582l12.075-12.075l-47.582-47.582L315.128,246.127z
		"/>
	<path style="fill:#4D007E;" d="M452.267,456.533c-1.152,0-2.304-0.23-3.362-0.691l-53.205-22.801l-13.133,19.695
		c-1.587,2.372-4.25,3.797-7.1,3.797h-204.8c-2.261,0-4.437-0.896-6.033-2.5l-25.762-25.762l-11.767,23.543
		c-1.451,2.893-4.403,4.719-7.637,4.719H59.733C26.795,456.533,0,429.739,0,396.8c2.21-30.404,23.253-51.2,51.2-51.2h9.66
		c4.079,0,7.407-3.328,7.407-7.407V115.2c0-4.71,3.823-8.533,8.533-8.533h87.569c2.637,0,5.129,1.22,6.75,3.311
		c1.613,2.082,2.176,4.796,1.519,7.356c-1.306,5.06-1.971,10.086-1.971,14.933c0,32.939,26.795,59.733,59.733,59.733
		s59.733-26.795,59.733-59.733c0-4.847-0.666-9.873-1.963-14.933c-0.657-2.551-0.102-5.274,1.519-7.356
		c1.613-2.091,4.105-3.311,6.741-3.311H332.8c2.261,0,4.437,0.896,6.033,2.5l27.179,27.179l19.695-26.266
		c1.613-2.15,4.139-3.413,6.827-3.413H435.2c4.71,0,8.533,3.823,8.533,8.533v222.993c0,4.079,3.328,7.407,7.407,7.407h9.66
		c27.947,0,48.99,20.796,51.183,50.577C512,429.739,485.205,456.533,452.267,456.533z M174.199,439.467h196.702l14.532-21.803
		c2.287-3.422,6.673-4.736,10.462-3.106l58.044,24.875c22.758-0.879,40.994-19.669,40.994-42.633
		c-1.476-19.84-15.522-34.133-34.133-34.133h-9.66c-13.491,0-24.474-10.982-24.474-24.474v-214.46H396.8l-23.04,30.72
		c-1.485,1.98-3.755,3.217-6.221,3.388c-2.466,0.154-4.89-0.734-6.639-2.483l-31.633-31.625h-22.571
		c0.333,2.867,0.503,5.717,0.503,8.533c0,42.342-34.458,76.8-76.8,76.8s-76.8-34.458-76.8-76.8c0-2.816,0.171-5.666,0.503-8.533
		h-68.77v214.46c0,13.491-10.982,24.474-24.474,24.474H51.2c-18.611,0-32.657,14.293-34.15,34.756
		c0.017,22.903,19.157,42.044,42.684,42.044h54.46l14.711-29.414c1.229-2.458,3.558-4.164,6.263-4.608
		c2.688-0.444,5.461,0.452,7.398,2.389L174.199,439.467z"/>
</g>
<g>
</g>
<g>
</g>
<g>
</g>
<g>
</g>
<g>
</g>
<g>
</g>
<g>
</g>
<g>
</g>
<g>
</g>
<g>
</g>
<g>
</g>
<g>
</g>
<g>
</g>
<g>
</g>
<g>
</g>
</svg>
