<?xml version="1.0" encoding="iso-8859-1"?>
<!-- Generator: Adobe Illustrator 19.0.0, SVG Export Plug-In . SVG Version: 6.00 Build 0)  -->
<svg version="1.1" id="Capa_1" xmlns="http://www.w3.org/2000/svg" xmlns:xlink="http://www.w3.org/1999/xlink" x="0px" y="0px"
	 viewBox="0 0 512 512" style="enable-background:new 0 0 512 512;" xml:space="preserve">
<path style="fill:#C8E6EB;" d="M357.17,61.349h-25.216v-14.7c0-1.803,1.462-3.264,3.264-3.264h18.687
	c1.803,0,3.264,1.462,3.264,3.264L357.17,61.349L357.17,61.349z"/>
<path style="fill:#46738C;" d="M512,114.806c0,6.311-4.986,11.494-11.292,11.74l-120.601,4.689V72.271l120.601,4.689
	C507.014,77.205,512,82.389,512,88.7V114.806z"/>
<path style="fill:#6C9BAA;" d="M403.745,133.08c0,8.366-6.782,15.147-15.147,15.147h-77.155V70.425
	c0-8.366,6.782-15.147,15.147-15.147h62.008c8.366,0,15.147,6.782,15.147,15.147V133.08z"/>
<path style="fill:#55696E;" d="M238.489,164.343l-52.973-20.226c-16.406-6.264-34.783,1.957-41.047,18.363L86.275,314.889
	l15.989,102.545H25.59C11.457,417.434,0,428.891,0,443.025c0,14.133,11.457,25.591,25.59,25.591h106.494
	c15.668,0,27.673-13.978,25.294-29.474l-15.836-103.15l57.117,21.809l58.193-152.408
	C263.117,188.985,254.895,170.607,238.489,164.343z"/>
<path style="fill:#415050;" d="M209.174,467.921c-13.753-3.256-22.263-17.045-19.006-30.798l17.786-75.718l-74.529-28.608
	c-13.705-3.452-22.017-17.361-18.566-31.066s17.36-22.018,31.067-18.565l99.389,33.7c13.568,3.417,21.876,17.097,18.652,30.712
	l-23.994,101.339C236.721,462.651,222.942,471.182,209.174,467.921z"/>
<path style="fill:#FA870A;" d="M141.542,335.991l-55.266-21.102l58.193-152.408c6.264-16.406,24.642-24.627,41.047-18.363
	l52.973,20.227c16.406,6.264,24.627,24.642,18.363,41.047l-38.981,102.09L141.542,335.991z"/>
<g>
	<circle style="fill:#BA6746;" cx="242.48" cy="90.47" r="47.07"/>
	<path style="fill:#BA6746;" d="M377.783,122.631c-0.593,1.454-1.355,2.863-2.295,4.203l-48.899,69.772
		c-4.099,5.848-10.852,9.257-17.991,9.08l-103.826-2.571c-11.774-0.292-21.083-10.073-20.791-21.848
		c0.291-11.769,10.072-21.082,21.847-20.791l92.396,2.288l42.338-60.409c6.759-9.645,20.058-11.984,29.703-5.224
		C378.569,102.951,381.457,113.622,377.783,122.631z"/>
</g>
<g>
</g>
<g>
</g>
<g>
</g>
<g>
</g>
<g>
</g>
<g>
</g>
<g>
</g>
<g>
</g>
<g>
</g>
<g>
</g>
<g>
</g>
<g>
</g>
<g>
</g>
<g>
</g>
<g>
</g>
</svg>
