<?xml version="1.0" encoding="iso-8859-1"?>
<!-- Generator: Adobe Illustrator 19.0.0, SVG Export Plug-In . SVG Version: 6.00 Build 0)  -->
<svg version="1.1" id="Capa_1" xmlns="http://www.w3.org/2000/svg" xmlns:xlink="http://www.w3.org/1999/xlink" x="0px" y="0px"
	 viewBox="0 0 512 512" style="enable-background:new 0 0 512 512;" xml:space="preserve">
<circle style="fill:#733C82;" cx="256" cy="256" r="256"/>
<path style="fill:#4B285A;" d="M380.609,479.657c73.245-40.896,124.328-116.713,130.706-204.934l-72.279-72.279l-3.116,9.582
	L305.376,81.482L205.285,172.04l140.498,140.499l-76.229,56.795L147.412,246.778l-72.414,72.414l192.537,192.537
	c40.639-1.803,78.809-13.079,112.367-31.676L380.609,479.657z"/>
<circle style="fill:#FFFFFF;" cx="256" cy="127.5" r="67.5"/>
<path style="fill:#E0E0E0;" d="M256,60c-0.216,0-0.428,0.014-0.643,0.016v134.968c0.215,0.002,0.427,0.016,0.643,0.016
	c37.279,0,67.5-30.221,67.5-67.5S293.279,60,256,60z"/>
<path style="fill:#FFEB50;" d="M242.945,368.978c-25.683-29.053-94.528-121.195-95.533-122.2c-19.997-19.997-52.418-19.997-72.414,0
	s-19.997,52.418,0,72.415c1.005,1.005,93.146,69.851,122.199,95.534c13.386,11.833,33.115,12.633,45.748,0
	C255.578,402.093,254.778,382.363,242.945,368.978z"/>
<circle style="fill:#FF965A;" cx="111.32" cy="282.5" r="19.5"/>
<path style="fill:#F7D139;" d="M313.925,367.225c29.053-25.683,121.195-94.527,122.2-95.533c19.997-19.997,19.997-52.417,0-72.414
	s-52.418-19.997-72.415,0c-1.005,1.005-69.851,93.146-95.534,122.199c-11.833,13.385-12.633,33.115,0,45.748
	C280.81,379.858,300.539,379.058,313.925,367.225z"/>
<circle style="fill:#FF8945;" cx="400.4" cy="235.6" r="19.5"/>
<g>
</g>
<g>
</g>
<g>
</g>
<g>
</g>
<g>
</g>
<g>
</g>
<g>
</g>
<g>
</g>
<g>
</g>
<g>
</g>
<g>
</g>
<g>
</g>
<g>
</g>
<g>
</g>
<g>
</g>
</svg>
