<?xml version="1.0" encoding="iso-8859-1"?>
<!-- Generator: Adobe Illustrator 19.0.0, SVG Export Plug-In . SVG Version: 6.00 Build 0)  -->
<svg version="1.1" id="Capa_1" xmlns="http://www.w3.org/2000/svg" xmlns:xlink="http://www.w3.org/1999/xlink" x="0px" y="0px"
	 viewBox="0 0 512 512" style="enable-background:new 0 0 512 512;" xml:space="preserve">
<path style="fill:#AFB9D2;" d="M186.288,187.59v43.69h-72.793v-43.69c0-20.109,16.297-36.396,36.396-36.396
	c10.055,0,19.151,4.069,25.734,10.652C182.218,168.439,186.288,177.536,186.288,187.59z"/>
<rect x="113.5" y="207.309" style="fill:#959CB3;" width="72.793" height="23.972"/>
<path style="fill:#FFA511;" d="M497.402,89.397v350.262c0,3.41-2.771,6.181-6.181,6.181H19.398c-3.41,0-6.181-2.771-6.181-6.181
	V248.046h246.564l10.631-10.683L417.738,89.397H497.402z"/>
<g>
	<path style="fill:#EB6B24;" d="M497.402,261.911v51.798l-97.775,34.037l-49.613,17.276l-232.13,80.817H19.398
		c-3.41,0-6.181-2.771-6.181-6.181v-9.169l144.977-50.479l93.468-32.543l57.7-20.089l102.987-35.861L497.402,261.911z"/>
	<polygon style="fill:#EB6B24;" points="497.402,158.337 497.402,210.123 448.984,226.977 412.351,239.731 294.735,280.682 
		253.146,295.156 148.408,331.623 13.217,378.693 13.217,326.906 51.025,313.74 131.976,285.565 146.636,280.454 239.733,248.046 
		270.412,237.361 412.351,187.945 428.792,182.227 	"/>
	<path style="fill:#EB6B24;" d="M497.402,89.397v142.134c-6.181,2.885-13.063,4.492-20.315,4.492
		c-26.63,0-48.295-21.665-48.295-48.295v-30.751c0-4.533-3.688-8.221-8.221-8.221c-4.533,0-8.221,3.688-8.221,8.221v156.567
		c0,28.907-23.509,52.426-52.416,52.426s-52.426-23.519-52.426-52.426v-9.416c0-15.401-12.527-27.928-27.928-27.928
		c-15.391,0-27.918,12.527-27.918,27.928v45.678c0,28.464-23.159,51.622-51.633,51.622c-28.464,0-51.622-23.158-51.622-51.622
		v-64.283c0-4.522-3.688-8.211-8.221-8.211s-8.211,3.688-8.211,8.211v14.412c0,22.963-18.687,41.65-41.66,41.65
		c-22.963,0-41.65-18.688-41.65-41.65v-7.757c0-8.2-6.665-14.866-14.866-14.866H13.217v-29.267h246.564l10.631-10.683
		L417.738,89.397H497.402z"/>
</g>
<g>
	<path style="fill:#E0510A;" d="M158.195,380.011l93.468-32.543v2.339c0,28.464-23.159,51.622-51.633,51.622
		C182.837,401.428,167.58,392.982,158.195,380.011z"/>
	<path style="fill:#E0510A;" d="M51.025,313.74l80.952-28.176v14.371c0,22.963-18.687,41.65-41.66,41.65
		C72.185,341.586,56.722,329.945,51.025,313.74z"/>
	<path style="fill:#E0510A;" d="M412.351,187.945v51.787l-117.616,40.95c-4.368-2.833-9.57-4.481-15.154-4.481
		c-12.259,0-22.695,7.943-26.434,18.955l-104.739,36.468v-46.101c0-1.916-0.659-3.678-1.772-5.068l93.097-32.409h20.047
		l10.631-10.683L412.351,187.945z"/>
	<path style="fill:#E0510A;" d="M412.351,291.518v22.025c0,13.052-4.801,25.013-12.723,34.202l-49.613,17.276
		c-19.646-3.771-35.428-18.553-40.651-37.643L412.351,291.518z"/>
	<path style="fill:#E0510A;" d="M497.402,158.337v51.787l-48.419,16.854c-12.218-8.767-20.192-23.097-20.192-39.25v-5.501
		L497.402,158.337z"/>
</g>
<polygon style="fill:#EB6B24;" points="497.402,365.492 497.402,417.281 415.379,445.836 266.631,445.836 "/>
<path style="fill:#52EA28;" d="M6.181,220.695h213.247L373.965,66.16h131.854c3.414,0,6.181,2.767,6.181,6.181v115.385
	c0,19.28-15.629,34.909-34.909,34.909l0,0c-19.28,0-34.909-15.629-34.909-34.909v-30.753c0-11.935-9.675-21.61-21.61-21.61l0,0
	c-11.935,0-21.61,9.675-21.61,21.61v156.572c0,21.556-17.474,39.03-39.03,39.03l0,0c-21.556,0-39.03-17.474-39.03-39.03v-9.42
	c0-22.818-18.498-41.316-41.316-41.316l0,0c-22.818,0-41.316,18.498-41.316,41.316v45.679c0,21.116-17.118,38.234-38.234,38.234l0,0
	c-21.116,0-38.234-17.118-38.234-38.234v-64.277c0-11.935-9.675-21.61-21.61-21.61l0,0c-11.935,0-21.61,9.675-21.61,21.61v14.407
	c0,15.607-12.652,28.26-28.26,28.26l0,0c-15.607,0-28.26-12.652-28.26-28.26v-7.758c0-15.607-12.652-28.26-28.26-28.26H6.181
	c-3.414,0-6.181-2.767-6.181-6.181v-30.859C0,223.464,2.767,220.695,6.181,220.695z"/>
<path style="fill:#8AFF64;" d="M512,72.344v9.333H380.147L229.142,232.684c-2.261,2.261-5.329,3.532-8.527,3.532H0v-9.344
	c0-3.414,2.767-6.181,6.181-6.181h213.247L373.966,66.163h131.853C509.233,66.163,512,68.93,512,72.344z"/>
<g>
	<path style="fill:#3EB500;" d="M362.795,254.63c-4.267,0-7.726-3.459-7.726-7.726v-0.967c0-4.268,3.459-7.726,7.726-7.726
		s7.726,3.459,7.726,7.726v0.967C370.522,251.171,367.062,254.63,362.795,254.63z"/>
	<path style="fill:#3EB500;" d="M319.528,239.975c-4.267,0-7.726-3.459-7.726-7.726v-0.967c0-4.268,3.459-7.726,7.726-7.726
		s7.726,3.459,7.726,7.726v0.967C327.254,236.518,323.795,239.975,319.528,239.975z"/>
	<path style="fill:#3EB500;" d="M203.461,322.398c-4.267,0-7.726-3.459-7.726-7.726v-0.966c0-4.268,3.459-7.726,7.726-7.726
		s7.726,3.459,7.726,7.726v0.966C211.187,318.94,207.728,322.398,203.461,322.398z"/>
	<path style="fill:#3EB500;" d="M476.802,184.346c-4.267,0-7.726-3.459-7.726-7.726v-0.967c0-4.268,3.459-7.726,7.726-7.726
		s7.726,3.459,7.726,7.726v0.967C484.529,180.887,481.069,184.346,476.802,184.346z"/>
	<path style="fill:#3EB500;" d="M92.888,284.896c-4.267,0-7.726-3.459-7.726-7.726v-0.966c0-4.268,3.459-7.726,7.726-7.726
		s7.726,3.459,7.726,7.726v0.966C100.614,281.438,97.155,284.896,92.888,284.896z"/>
</g>
<g>
	<path style="fill:#52EA28;" d="M34.666,114.831c-2.377,0-4.722-1.094-6.236-3.157c-2.524-3.441-1.781-8.277,1.66-10.8l10.613-7.786
		L30.09,85.302c-3.441-2.524-4.184-7.359-1.659-10.8s7.36-4.184,10.8-1.659l19.105,14.016c1.984,1.456,3.156,3.769,3.156,6.229
		s-1.172,4.775-3.156,6.229L39.23,113.334C37.853,114.345,36.253,114.831,34.666,114.831z"/>
	<path style="fill:#52EA28;" d="M82.729,114.831c-2.377,0-4.722-1.094-6.236-3.157c-2.524-3.441-1.781-8.277,1.66-10.801
		l10.613-7.785l-10.613-7.787c-3.441-2.524-4.184-7.359-1.659-10.8s7.36-4.184,10.8-1.659l19.105,14.016
		c1.984,1.456,3.156,3.769,3.156,6.229s-1.172,4.775-3.156,6.23l-19.106,14.015C85.916,114.345,84.315,114.831,82.729,114.831z"/>
	<path style="fill:#52EA28;" d="M130.792,114.831c-2.377,0-4.722-1.094-6.236-3.157c-2.524-3.441-1.781-8.277,1.66-10.8
		l10.613-7.786l-10.613-7.787c-3.441-2.524-4.184-7.359-1.659-10.8s7.359-4.184,10.8-1.659l19.105,14.016
		c1.984,1.456,3.156,3.769,3.156,6.229s-1.172,4.775-3.156,6.229l-19.105,14.015C133.979,114.345,132.379,114.831,130.792,114.831z"
		/>
</g>
<g>
</g>
<g>
</g>
<g>
</g>
<g>
</g>
<g>
</g>
<g>
</g>
<g>
</g>
<g>
</g>
<g>
</g>
<g>
</g>
<g>
</g>
<g>
</g>
<g>
</g>
<g>
</g>
<g>
</g>
</svg>
