<?xml version="1.0" encoding="iso-8859-1"?>
<!-- Generator: Adobe Illustrator 19.0.0, SVG Export Plug-In . SVG Version: 6.00 Build 0)  -->
<svg version="1.1" id="Capa_1" xmlns="http://www.w3.org/2000/svg" xmlns:xlink="http://www.w3.org/1999/xlink" x="0px" y="0px"
	 viewBox="0 0 512 512" style="enable-background:new 0 0 512 512;" xml:space="preserve">
<circle style="fill:#FFD4B0;" cx="142.17" cy="324.267" r="34.133"/>
<path style="fill:#FFDC13;" d="M304.304,42.667v51.2c0,18.85,15.283,34.133,34.133,34.133h25.6l25.6,25.6l25.6-25.6h25.6
	c18.85,0,34.133-15.283,34.133-34.133v-51.2c0-18.85-15.283-34.133-34.133-34.133h-102.4
	C319.578,8.533,304.304,23.817,304.304,42.667z"/>
<path style="fill:#4DB5FF;" d="M227.504,170.667c0-37.7-38.204-68.267-85.333-68.267s-85.333,30.566-85.333,68.267
	c0,31.957,27.477,58.701,64.538,66.142l20.796,27.725l20.796-27.725C200.026,229.367,227.504,202.624,227.504,170.667z"/>
<g>
	<rect x="133.637" y="196.267" style="fill:#235087;" width="17.067" height="17.067"/>
	<path style="fill:#235087;" d="M326.567,473.993c-2.628,13.619,6.281,26.786,19.9,29.414c13.619,2.628,26.786-6.281,29.414-19.9
		c0.068-0.341,0.128-0.683,0.179-1.033l13.577-81.408l13.568,81.417c2.057,13.713,14.848,23.168,28.57,21.103
		c13.722-2.065,23.168-14.848,21.103-28.57c-0.051-0.341-0.111-0.691-0.179-1.033L432.304,358.4H346.97L326.567,473.993z"/>
</g>
<polygon style="fill:#FFA511;" points="65.37,384 65.37,418.133 99.504,418.133 99.504,503.467 184.837,503.467 184.837,418.133 
	218.97,418.133 218.97,384 "/>
<path style="fill:#FFD4B0;" d="M269.436,387.832l-41.745-59.639c-4.847-7.091-14.532-8.917-21.623-4.07s-8.917,14.532-4.07,21.623
	L227.504,384h-8.533v34.133h34.688c10.641,0,19.26-8.627,19.26-19.26C272.91,394.923,271.698,391.066,269.436,387.832z"/>
<polygon style="fill:#EF2648;" points="321.37,273.067 321.37,307.2 346.97,307.2 346.97,358.4 432.304,358.4 432.304,307.2 
	457.904,307.2 457.904,273.067 "/>
<path style="fill:#FFD4B0;" d="M486.371,239.164c-9.293-1.587-18.108,4.668-19.695,13.961c-0.162,0.947-0.247,1.911-0.239,2.876
	v8.533c0,4.71-3.823,8.533-8.533,8.533V307.2c23.561,0,42.667-19.106,42.667-42.667v-7.62
	C500.758,248.337,494.776,240.862,486.371,239.164z"/>
<path style="fill:#235087;" d="M150.704,187.733h-17.067c0-14.14,11.46-25.6,25.6-25.6c4.71,0,8.533-3.823,8.533-8.533
	s-3.823-8.533-8.533-8.533h-25.6c-4.71,0-8.533,3.823-8.533,8.533h-17.067c0-14.14,11.46-25.6,25.6-25.6h25.6
	c14.14,0,25.6,11.46,25.6,25.6c0,14.14-11.46,25.6-25.6,25.6C154.518,179.2,150.704,183.023,150.704,187.733z"/>
<path style="fill:#2DB357;" d="M372.57,102.4c-2.261,0-4.437-0.896-6.033-2.5l-17.067-17.067c-3.277-3.388-3.183-8.789,0.213-12.066
	c3.311-3.191,8.55-3.191,11.853,0l11.034,11.034l45.167-45.167c3.277-3.388,8.678-3.482,12.066-0.213
	c3.388,3.277,3.482,8.678,0.213,12.066c-0.068,0.068-0.137,0.137-0.213,0.213l-51.2,51.2
	C376.999,101.504,374.832,102.4,372.57,102.4z"/>
<g>
	<path style="fill:#FFD4B0;" d="M56.837,384l25.506-38.255c4.847-7.091,3.021-16.777-4.07-21.623
		c-7.091-4.847-16.777-3.021-21.623,4.07l0,0l-41.745,59.639c-6.101,8.713-3.977,20.727,4.736,26.82
		c3.234,2.27,7.091,3.482,11.042,3.482H65.37V384H56.837z"/>
	<path style="fill:#FFD4B0;" d="M312.837,264.533V222.78c0.188-8.576-5.794-16.051-14.199-17.749
		c-9.293-1.587-18.108,4.668-19.695,13.961c-0.162,0.947-0.247,1.911-0.239,2.876v42.667c0,23.561,19.106,42.667,42.667,42.667
		v-34.133C316.651,273.067,312.837,269.244,312.837,264.533z"/>
</g>
<path style="fill:#163768;" d="M326.567,473.993c-2.628,13.619,6.281,26.786,19.9,29.414c13.619,2.628,26.786-6.281,29.414-19.9
	c0.068-0.341,0.128-0.683,0.179-1.033l13.577-81.408l13.568,81.417c2.057,13.713,14.848,23.168,28.57,21.103
	c13.722-2.065,23.168-14.848,21.103-28.57c-0.051-0.341-0.111-0.691-0.179-1.033L432.304,358.4H346.97L326.567,473.993z"/>
<path style="fill:#F08015;" d="M99.504,430.08v73.387h85.333v-85.333h34.133v-12.109C179.879,417.348,139.926,425.395,99.504,430.08
	z"/>
<path style="fill:#EDC4A2;" d="M218.97,418.133h34.688c10.598,0.017,19.209-8.559,19.226-19.157c0.009-3.439-0.913-6.81-2.662-9.779
	c-16.785,6.255-33.911,11.793-51.251,16.828V418.133z"/>
<path style="fill:#B20D24;" d="M346.97,355.337v3.063h85.333v-51.2h25.6v-21.444C423.071,312.209,385.942,335.497,346.97,355.337z"
	/>
<path style="fill:#EDC4A2;" d="M457.904,307.2c23.561,0,42.667-19.106,42.667-42.667v-7.62c-0.009-1.869-0.299-3.729-0.853-5.513
	c-13.508,11.947-27.452,23.398-41.813,34.355V307.2z"/>
<path style="fill:#3596D8;" d="M207.561,126.839c-13.952,27.725-34.526,51.575-59.913,69.427h3.055v17.067h-17.067v-8.115
	c-14.046,8.141-29.09,14.413-44.757,18.645c9.941,6.289,20.958,10.675,32.495,12.945l20.796,27.725l20.796-27.725
	c37.06-7.441,64.538-34.185,64.538-66.142C227.196,153.924,219.977,138.061,207.561,126.839z"/>
<path style="fill:#163768;" d="M133.637,213.333h17.067v-17.067h-3.055c-4.548,3.183-9.225,6.161-14.012,8.951
	C133.637,205.218,133.637,213.333,133.637,213.333z"/>
<path style="fill:#E5AF17;" d="M461.018,15.275c-26.496,53.547-73.796,93.884-130.85,111.599c2.697,0.717,5.478,1.092,8.269,1.126
	h25.6l25.6,25.6l25.6-25.6h25.6c18.85,0,34.133-15.283,34.133-34.133v-51.2C474.953,31.829,469.765,21.658,461.018,15.275z"/>
<path style="fill:#EDC4A2;" d="M161.635,296.269c10.778,15.428,7.006,36.676-8.422,47.454c-11.725,8.192-27.315,8.192-39.04,0
	c10.667,15.539,31.915,19.499,47.454,8.832c15.539-10.667,19.499-31.915,8.832-47.454
	C168.086,301.636,165.091,298.641,161.635,296.269z"/>
<circle style="fill:#FFD4B0;" cx="389.637" cy="213.333" r="34.133"/>
<path style="fill:#EDC4A2;" d="M409.102,185.335c10.778,15.428,7.006,36.676-8.422,47.454c-11.725,8.192-27.315,8.192-39.04,0
	c10.667,15.539,31.915,19.499,47.454,8.832c15.539-10.667,19.499-31.915,8.832-47.454
	C415.553,190.703,412.558,187.708,409.102,185.335z"/>
<path d="M184.837,324.267c0-23.561-19.106-42.667-42.667-42.667s-42.667,19.106-42.667,42.667s19.106,42.667,42.667,42.667
	C165.722,366.908,184.803,347.819,184.837,324.267z M116.57,324.267c0-14.14,11.46-25.6,25.6-25.6c14.14,0,25.6,11.46,25.6,25.6
	c0,14.14-11.46,25.6-25.6,25.6C128.031,349.867,116.57,338.406,116.57,324.267z"/>
<path d="M99.504,512h85.333c4.71,0,8.533-3.823,8.533-8.533v-76.8h60.288c15.351,0,27.793-12.45,27.785-27.802
	c0-5.7-1.758-11.255-5.018-15.923l-41.737-59.639c-7.646-10.889-22.665-13.525-33.553-5.879c-10.692,7.509-13.457,22.17-6.229,33.05
	l16.657,24.994H72.777l16.657-24.994c7.364-11.085,4.343-26.035-6.733-33.399c-10.88-7.228-25.54-4.471-33.05,6.229L7.915,382.942
	c-8.798,12.578-5.734,29.909,6.844,38.707c4.659,3.26,10.223,5.018,15.923,5.018H90.97v76.8C90.97,508.177,94.785,512,99.504,512z
	 M30.682,409.6c-5.922,0-10.726-4.796-10.726-10.726c0-2.202,0.674-4.352,1.937-6.153l41.771-59.639
	c2.193-3.2,6.562-4.028,9.762-1.835c3.2,2.193,4.028,6.562,1.835,9.762l-25.523,38.255c-2.62,3.917-1.562,9.216,2.364,11.836
	c1.399,0.939,3.046,1.434,4.736,1.434h170.667c4.71,0,8.533-3.823,8.533-8.533c0-1.69-0.495-3.337-1.434-4.736l-25.498-38.255
	c-2.193-3.2-1.365-7.569,1.835-9.762c3.2-2.193,7.569-1.365,9.762,1.835l41.788,59.639c3.396,4.855,2.219,11.537-2.637,14.942
	c-1.818,1.271-3.985,1.946-6.195,1.937h-68.821c-4.71,0-8.533,3.823-8.533,8.533v76.8h-68.267v-76.8c0-4.71-3.823-8.533-8.533-8.533
	L30.682,409.6L30.682,409.6z"/>
<path d="M142.17,93.867c-51.755,0-93.867,34.449-93.867,76.8c0,34.509,27.861,64.478,68.156,73.805l18.884,25.182
	c2.825,3.772,8.175,4.531,11.947,1.707c0.649-0.486,1.22-1.058,1.707-1.707l18.884-25.182c40.294-9.327,68.156-39.296,68.156-73.805
	C236.037,128.316,193.925,93.867,142.17,93.867z M161.276,228.446c-2.048,0.418-3.866,1.57-5.12,3.243l-13.986,18.62l-13.969-18.62
	c-1.254-1.673-3.072-2.825-5.12-3.243c-33.988-6.818-57.711-30.575-57.711-57.779c0-32.93,34.449-59.733,76.8-59.733
	s76.8,26.803,76.8,59.733C218.97,197.871,195.248,221.628,161.276,228.446z"/>
<path d="M346.97,213.333c0,23.561,19.106,42.667,42.667,42.667s42.667-19.106,42.667-42.667s-19.106-42.667-42.667-42.667
	C366.085,170.692,346.996,189.781,346.97,213.333z M415.237,213.333c0,14.14-11.46,25.6-25.6,25.6s-25.6-11.46-25.6-25.6
	s11.46-25.6,25.6-25.6S415.237,199.194,415.237,213.333z"/>
<path d="M483.504,93.867v-51.2C483.478,19.115,464.389,0.026,440.837,0h-102.4c-23.552,0.026-42.641,19.115-42.667,42.667v51.2
	c0.026,23.552,19.115,42.641,42.667,42.667h22.067l23.1,23.1c3.328,3.328,8.738,3.328,12.066,0l23.1-23.1h22.067
	C464.389,136.508,483.47,117.419,483.504,93.867z M415.237,119.467c-2.261,0-4.437,0.896-6.033,2.5l-19.567,19.567l-19.567-19.567
	c-1.604-1.604-3.772-2.5-6.033-2.5h-25.6c-14.14,0-25.6-11.46-25.6-25.6v-51.2c0-14.14,11.46-25.6,25.6-25.6h102.4
	c14.14,0,25.6,11.46,25.6,25.6v51.2c0,14.14-11.46,25.6-25.6,25.6H415.237z"/>
<path d="M487.77,230.741c-13.943-2.355-27.153,7.031-29.508,20.975c-0.239,1.417-0.358,2.85-0.358,4.284v8.533H321.37V222.78
	c0.162-12.74-8.823-23.757-21.333-26.172c-13.943-2.355-27.153,7.031-29.508,20.975c-0.239,1.417-0.358,2.85-0.358,4.284v42.667
	c0.026,28.262,22.938,51.174,51.2,51.2h17.067v41.916L318.17,472.508c-3.14,18.321,9.165,35.721,27.486,38.861
	c18.321,3.14,35.721-9.165,38.861-27.486l5.12-30.899l5.12,30.908c3.14,18.313,20.54,30.609,38.852,27.469
	c18.313-3.14,30.609-20.54,27.46-38.852l-20.233-114.859v-41.916h17.067c28.262-0.026,51.174-22.938,51.2-51.2v-7.62
	C509.257,244.173,500.272,233.156,487.77,230.741z M492.037,264.533c0,18.85-15.283,34.133-34.133,34.133h-25.6
	c-4.71,0-8.533,3.823-8.533,8.533v51.2c0,0.495,0.043,0.998,0.137,1.485l20.395,115.593c1.596,9.02-4.42,17.621-13.44,19.217
	c-9.02,1.596-17.621-4.42-19.217-13.44c-0.009-0.06-0.017-0.119-0.034-0.171l-13.568-81.417c-0.785-4.651-5.188-7.774-9.839-6.989
	c-3.584,0.606-6.383,3.413-6.989,6.989l-13.568,81.408c-1.451,9.045-9.95,15.198-18.995,13.747s-15.198-9.95-13.747-18.995
	c0.017-0.119,0.043-0.23,0.06-0.35l20.395-115.593c0.094-0.486,0.137-0.99,0.137-1.485v-51.2c0-4.71-3.823-8.533-8.533-8.533h-25.6
	c-18.85,0-34.133-15.283-34.133-34.133v-42.667c0-4.71,3.814-8.533,8.533-8.533c0.503,0,1.007,0.043,1.493,0.128
	c4.258,1.041,7.202,4.932,7.04,9.318v41.754c0,9.429,7.637,17.067,17.067,17.067h136.533c9.429,0,17.067-7.637,17.067-17.067V256
	c0-2.509,1.101-4.89,3.012-6.511c1.937-1.655,4.514-2.347,7.014-1.894c4.258,1.041,7.202,4.932,7.04,9.318v7.62H492.037z"/>
<g>
</g>
<g>
</g>
<g>
</g>
<g>
</g>
<g>
</g>
<g>
</g>
<g>
</g>
<g>
</g>
<g>
</g>
<g>
</g>
<g>
</g>
<g>
</g>
<g>
</g>
<g>
</g>
<g>
</g>
</svg>
