<?xml version="1.0" encoding="iso-8859-1"?>
<!-- Generator: Adobe Illustrator 19.0.0, SVG Export Plug-In . SVG Version: 6.00 Build 0)  -->
<svg version="1.1" id="Capa_1" xmlns="http://www.w3.org/2000/svg" xmlns:xlink="http://www.w3.org/1999/xlink" x="0px" y="0px"
	 viewBox="0 0 512 512" style="enable-background:new 0 0 512 512;" xml:space="preserve">
<g>
	<path style="fill:#2196F3;" d="M509.88,408l-96.96-168.288c-2.208-3.808-5.888-6.56-10.144-7.584s-8.768-0.256-12.48,2.144
		l-134.4,87.68c-7.104,4.672-9.344,14.048-5.12,21.408l92.8,160.64c2.88,4.992,8.192,8,13.856,8c0.672,0,1.408-0.032,2.08-0.128
		c6.432-0.864,11.68-5.504,13.376-11.744l24.992-93.952l93.952,25.248c6.272,1.728,12.864-0.576,16.832-5.696
		C512.632,420.64,513.08,413.632,509.88,408z"/>
	<path style="fill:#2196F3;" d="M256.088,321.984l-134.4-87.68c-3.68-2.432-8.256-3.232-12.48-2.144
		c-4.256,0.992-7.936,3.744-10.112,7.552L2.136,408c-3.232,5.632-2.752,12.64,1.184,17.76s10.56,7.424,16.832,5.696l93.952-25.248
		l24.992,93.952c1.664,6.24,6.944,10.88,13.344,11.744c0.704,0.064,1.44,0.096,2.112,0.096c5.664,0,10.976-3.008,13.856-8
		l92.8-160.64C265.464,336.032,263.224,326.624,256.088,321.984z"/>
</g>
<circle style="fill:#FFC107;" cx="255.992" cy="176" r="176"/>
<path style="fill:#FAFAFA;" d="M351.192,136.064c-1.728-5.152-5.92-9.056-11.136-10.432l-45.408-11.872l-24.896-41.92
	c-5.76-9.728-21.76-9.728-27.488,0l-24.896,41.92l-45.408,11.872c-5.28,1.376-9.44,5.28-11.168,10.432s-0.704,10.784,2.688,15.04
	l30.4,38.08l-3.296,49.76c-0.352,5.536,2.176,10.88,6.72,14.112c4.544,3.232,10.4,3.84,15.52,1.664l43.168-18.336l43.2,18.336
	c1.984,0.864,4.128,1.28,6.24,1.28c3.296,0,6.496-0.992,9.248-2.944c4.576-3.232,7.104-8.576,6.72-14.112l-3.328-49.76l30.4-38.08
	C351.864,146.848,352.888,141.216,351.192,136.064z"/>
<g>
</g>
<g>
</g>
<g>
</g>
<g>
</g>
<g>
</g>
<g>
</g>
<g>
</g>
<g>
</g>
<g>
</g>
<g>
</g>
<g>
</g>
<g>
</g>
<g>
</g>
<g>
</g>
<g>
</g>
</svg>
