<?xml version="1.0" encoding="iso-8859-1"?>
<!-- Generator: Adobe Illustrator 19.0.0, SVG Export Plug-In . SVG Version: 6.00 Build 0)  -->
<svg version="1.1" id="Capa_1" xmlns="http://www.w3.org/2000/svg" xmlns:xlink="http://www.w3.org/1999/xlink" x="0px" y="0px"
	 viewBox="0 0 512 512" style="enable-background:new 0 0 512 512;" xml:space="preserve">
<path style="fill:#FEF4E7;" d="M306,174H206c-17.673,0-32-14.327-32-32V42c0-17.673,14.327-32,32-32h100c17.673,0,32,14.327,32,32
	v100C338,159.673,323.673,174,306,174z"/>
<path style="fill:#FDE6C5;" d="M306,338H206c-17.673,0-32-14.327-32-32V206c0-17.673,14.327-32,32-32h100c17.673,0,32,14.327,32,32
	v100C338,323.673,323.673,338,306,338z"/>
<g>
	<path style="fill:#FEF4E7;" d="M306,502H206c-17.673,0-32-14.327-32-32V370c0-17.673,14.327-32,32-32h100c17.673,0,32,14.327,32,32
		v100C338,487.673,323.673,502,306,502z"/>
	<path style="fill:#FEF4E7;" d="M338,306V206c0-17.673,14.327-32,32-32h100c17.673,0,32,14.327,32,32v100c0,17.673-14.327,32-32,32
		H370C352.327,338,338,323.673,338,306z"/>
	<path style="fill:#FEF4E7;" d="M10,306V206c0-17.673,14.327-32,32-32h100c17.673,0,32,14.327,32,32v100c0,17.673-14.327,32-32,32
		H42C24.327,338,10,323.673,10,306z"/>
</g>
<path d="M338,410c-2.63,0-5.21,1.069-7.07,2.93S328,417.37,328,420s1.069,5.21,2.93,7.069c1.86,1.86,4.44,2.931,7.07,2.931
	s5.21-1.07,7.069-2.931C346.93,425.21,348,422.63,348,420c0-2.641-1.07-5.21-2.931-7.07C343.21,411.069,340.63,410,338,410z"/>
<path d="M470,164H370c-12.81,0-24.29,5.771-32,14.841c-1.48-1.742-3.099-3.36-4.841-4.841c9.07-7.71,14.841-19.191,14.841-32V42
	c0-23.159-18.841-42-42-42H206c-23.159,0-42,18.841-42,42v100c0,12.809,5.771,24.29,14.841,32c-1.742,1.48-3.36,3.099-4.841,4.841
	c-7.71-9.07-19.19-14.841-32-14.841H42c-23.159,0-42,18.841-42,42v100c0,23.159,18.841,42,42,42h100c12.81,0,24.29-5.771,32-14.841
	c1.48,1.742,3.099,3.36,4.841,4.841c-9.07,7.71-14.841,19.191-14.841,32v100c0,23.159,18.841,42,42,42h100c23.159,0,42-18.841,42-42
	v-8.063c0-5.522-4.478-10-10-10s-10,4.478-10,10V470c0,12.131-9.869,22-22,22H206c-12.131,0-22-9.869-22-22V370
	c0-12.131,9.869-22,22-22h100c12.131,0,22,9.869,22,22v8.5c0,5.522,4.478,10,10,10s10-4.478,10-10V370
	c0-12.809-5.771-24.29-14.841-32c1.742-1.48,3.36-3.099,4.841-4.841c7.71,9.07,19.19,14.841,32,14.841h100c23.159,0,42-18.841,42-42
	V206C512,182.841,493.159,164,470,164z M164,306c0,12.131-9.869,22-22,22H42c-12.131,0-22-9.869-22-22V206c0-12.131,9.869-22,22-22
	h100c12.131,0,22,9.869,22,22V306z M328,306c0,12.131-9.869,22-22,22H206c-12.131,0-22-9.869-22-22V206c0-12.131,9.869-22,22-22h100
	c12.131,0,22,9.869,22,22V306z M328,142c0,12.131-9.869,22-22,22H206c-12.131,0-22-9.869-22-22V42c0-12.131,9.869-22,22-22h100
	c12.131,0,22,9.869,22,22V142z M492,306c0,12.131-9.869,22-22,22H370c-12.131,0-22-9.869-22-22V206c0-12.131,9.869-22,22-22h100
	c12.131,0,22,9.869,22,22V306z"/>
<path d="M256,62.818c6.638,0,12.037,4.486,12.037,10c0,5.522,4.478,10,10,10s10-4.478,10-10c0-16.542-14.372-30-32.037-30
	s-32.037,13.458-32.037,30s14.372,30,32.037,30c6.638,0,12.037,4.486,12.037,10s-5.399,10-12.037,10s-12.037-4.486-12.037-10
	c0-5.522-4.478-10-10-10s-10,4.478-10,10c0,16.542,14.372,30,32.037,30s32.037-13.458,32.037-30s-14.372-30-32.037-30
	c-6.638,0-12.037-4.486-12.037-10S249.362,62.818,256,62.818z"/>
<path d="M414.429,226h21.477c5.522,0,10-4.478,10-10s-4.478-10-10-10h-21.477c-11.227,0-20.36,9.134-20.36,20.36v59.279
	c0,11.227,9.134,20.36,20.36,20.36h21.477c5.522,0,10-4.478,10-10s-4.478-10-10-10h-21.477c-0.198,0-0.36-0.162-0.36-0.36V266
	h11.732c5.522,0,10-4.478,10-10s-4.478-10-10-10h-11.732v-19.64C414.068,226.162,414.23,226,414.429,226z"/>
<path d="M246.242,391.938h28.608c5.522,0,10-4.478,10-10s-4.478-10-10-10h-28.608c-11.227,0-20.36,9.134-20.36,20.36v59.279
	c0,11.227,9.134,20.36,20.36,20.36h28.608c5.522,0,10-4.478,10-10s-4.478-10-10-10h-28.608c-0.198,0-0.36-0.162-0.36-0.36v-59.279
	C245.882,392.1,246.044,391.938,246.242,391.938z"/>
<path d="M265.363,212.615c-1.464-3.902-5.195-6.488-9.363-6.488s-7.899,2.586-9.363,6.488l-30,80
	c-1.939,5.172,0.681,10.936,5.852,12.875c5.176,1.94,10.936-0.682,12.875-5.852l2.567-6.845h2.249h33.891l2.567,6.845
	c1.506,4.015,5.315,6.491,9.365,6.491c1.166,0,2.353-0.206,3.51-0.64c5.171-1.939,7.791-7.703,5.852-12.875L265.363,212.615z
	 M245.43,272.794L256,244.607l10.57,28.187H245.43z"/>
<path d="M96.722,206H69.256c-5.522,0-10,4.478-10,10v40v40c0,5.522,4.478,10,10,10h27.466c15.438,0,27.997-12.56,27.997-27.997
	v-4.006c0-6.848-2.476-13.127-6.573-17.997c4.098-4.87,6.573-11.149,6.573-17.997v-4.006C124.719,218.56,112.159,206,96.722,206z
	 M79.256,226h17.466c4.409,0,7.997,3.588,7.997,7.997v4.006c0,4.409-3.588,7.997-7.997,7.997H79.256V226z M104.719,278.003
	c0,4.409-3.588,7.997-7.997,7.997H79.256v-20h17.466c4.409,0,7.997,3.588,7.997,7.997V278.003z"/>
<g>
</g>
<g>
</g>
<g>
</g>
<g>
</g>
<g>
</g>
<g>
</g>
<g>
</g>
<g>
</g>
<g>
</g>
<g>
</g>
<g>
</g>
<g>
</g>
<g>
</g>
<g>
</g>
<g>
</g>
</svg>
