<?xml version="1.0" encoding="iso-8859-1"?>
<!-- Generator: Adobe Illustrator 19.0.0, SVG Export Plug-In . SVG Version: 6.00 Build 0)  -->
<svg version="1.1" id="Capa_1" xmlns="http://www.w3.org/2000/svg" xmlns:xlink="http://www.w3.org/1999/xlink" x="0px" y="0px"
	 viewBox="0 0 512 512" style="enable-background:new 0 0 512 512;" xml:space="preserve">
<g>
	<g transform="translate(1 1)">
		<g>
			<path style="fill:#7F8C8D;" d="M417.133,485.4v17.067H92.867V485.4c0.028-9.414,7.652-17.039,17.067-17.067h290.133
				C409.481,468.361,417.106,475.986,417.133,485.4z"/>
			<path style="fill:#7F8C8D;" d="M391.533,468.333H118.467c-0.005-18.107,7.186-35.474,19.989-48.277
				c12.804-12.804,30.17-19.994,48.277-19.989h136.533c18.113-0.024,35.491,7.16,48.299,19.968
				C384.373,432.842,391.558,450.22,391.533,468.333z"/>
			<rect x="229.4" y="289.133" style="fill:#7F8C8D;" width="51.2" height="110.933"/>
		</g>
		<g>
			<path style="fill:#607D8B;" d="M417.133,485.4v17.067H92.867V485.4c0.028-9.414,7.652-17.039,17.067-17.067h290.133
				C409.481,468.361,417.106,475.986,417.133,485.4z"/>
			<path style="fill:#607D8B;" d="M391.533,468.333H118.467c-0.005-18.107,7.186-35.474,19.989-48.277
				c12.804-12.804,30.17-19.994,48.277-19.989h136.533c18.113-0.024,35.491,7.16,48.299,19.968
				C384.373,432.842,391.558,450.22,391.533,468.333z"/>
		</g>
		<path id="SVGCleanerId_0" style="fill:#CFD8DC;" d="M391.533,485.4v17.067H92.867V485.4c0.028-9.414,7.652-17.039,17.067-17.067
			h264.533C383.881,468.361,391.506,475.986,391.533,485.4z"/>
		<path id="SVGCleanerId_1" style="fill:#CFD8DC;" d="M365.933,468.333H118.467c-0.005-18.107,7.186-35.474,19.989-48.277
			c12.804-12.804,30.17-19.994,48.277-19.989h110.933c18.113-0.024,35.491,7.16,48.299,19.968
			C358.773,432.842,365.958,450.22,365.933,468.333z"/>
		<g>
			<path id="SVGCleanerId_0_1_" style="fill:#CFD8DC;" d="M391.533,485.4v17.067H92.867V485.4
				c0.028-9.414,7.652-17.039,17.067-17.067h264.533C383.881,468.361,391.506,475.986,391.533,485.4z"/>
		</g>
		<g>
			<path id="SVGCleanerId_1_1_" style="fill:#CFD8DC;" d="M365.933,468.333H118.467c-0.005-18.107,7.186-35.474,19.989-48.277
				c12.804-12.804,30.17-19.994,48.277-19.989h110.933c18.113-0.024,35.491,7.16,48.299,19.968
				C358.773,432.842,365.958,450.22,365.933,468.333z"/>
		</g>
		<rect x="229.4" y="289.133" style="fill:#CFD8DC;" width="51.2" height="110.933"/>
		<path style="fill:#37474F;" d="M502.467,272.067c-0.068,9.397-7.669,16.998-17.067,17.067H24.6
			c-9.414-0.028-17.039-7.653-17.067-17.067c-0.024-4.528,1.793-8.871,5.035-12.032c3.161-3.241,7.504-5.059,12.032-5.035h460.8
			C494.814,255.028,502.439,262.652,502.467,272.067z"/>
		<path style="fill:#607D8B;" d="M476.867,272.067c-0.068,9.397-7.669,16.998-17.067,17.067H24.6
			c-9.414-0.028-17.039-7.653-17.067-17.067c-0.024-4.528,1.793-8.871,5.035-12.032c3.161-3.241,7.504-5.059,12.032-5.035h435.2
			C469.214,255.028,476.839,262.652,476.867,272.067z"/>
		<g>
			<rect x="33.133" y="50.2" style="fill:#7F8C8D;" width="187.733" height="204.8"/>
			<path style="fill:#7F8C8D;" d="M476.867,237.933l0,17.067h-256V50.2l68.267,0c47.925-0.074,94.049,18.254,128.853,51.2H395.8
				c-16.487,0.018-29.849,13.379-29.867,29.867c0.079,16.462,13.405,29.788,29.867,29.867h64.597
				C471.295,185.268,476.91,211.452,476.867,237.933z"/>
			<path style="fill:#7F8C8D;" d="M460.397,161.133H395.8c-16.462-0.079-29.788-13.405-29.867-29.867
				c0.018-16.487,13.379-29.849,29.867-29.867h22.187C435.936,118.31,450.351,138.613,460.397,161.133z"/>
			<path style="fill:#7F8C8D;" d="M144.067,118.467h-51.2c-4.713,0-8.533-3.821-8.533-8.533c0-4.713,3.821-8.533,8.533-8.533h51.2
				c4.713,0,8.533,3.821,8.533,8.533C152.6,114.646,148.779,118.467,144.067,118.467z"/>
			<path style="fill:#7F8C8D;" d="M84.333,24.6v25.6h-51.2V7.533h34.133C76.681,7.561,84.306,15.186,84.333,24.6z"/>
		</g>
		<rect x="33.133" y="50.2" style="fill:#FF5722;" width="187.733" height="204.8"/>
		<path style="fill:#F57C00;" d="M476.867,237.933V255h-256V50.2h68.267C392.789,50.265,476.802,134.278,476.867,237.933z"/>
		<path style="fill:#FF9801;" d="M451.267,237.933V255h-230.4V50.2l42.667,0c47.925-0.074,94.049,18.254,128.853,51.2l0.171,0.171
			C429.993,137.055,451.218,186.353,451.267,237.933z"/>
		<path style="fill:#FDD834;" d="M460.397,161.133h-25.6c-10.04-22.431-24.392-42.669-42.24-59.563
			c1.109-0.085,2.133-0.171,3.243-0.171h22.187C435.936,118.31,450.351,138.613,460.397,161.133z"/>
		<path style="fill:#FFEB3A;" d="M434.797,161.133H395.8c-16.462-0.079-29.788-13.405-29.867-29.867
			c0.029-15.23,11.488-28.011,26.624-29.696C410.405,118.464,424.757,138.702,434.797,161.133z"/>
		<path style="fill:#FEC108;" d="M84.333,24.6v25.6h-51.2V7.533h34.133C76.681,7.561,84.306,15.186,84.333,24.6z"/>
	</g>
	<g>
		<path d="M486.4,247.467v-8.533c0.015-27.582-5.82-54.854-17.12-80.015l-0.102-0.227c-10.464-23.223-25.331-44.198-43.777-61.764
			c-0.333-0.382-0.7-0.732-1.097-1.046c-36.298-34.203-84.296-53.24-134.17-53.215H93.867V25.6C93.851,11.468,82.399,0.015,68.267,0
			H34.133C29.421,0,25.6,3.821,25.6,8.533v238.933c-14.138,0-25.6,11.462-25.6,25.6s11.462,25.6,25.6,25.6h196.267v93.867h-34.133
			c-39.087,0.056-71.912,29.427-76.297,68.267h-0.503c-14.132,0.015-25.585,11.468-25.6,25.6v17.067
			c0,4.713,3.821,8.533,8.533,8.533h324.267c4.713,0,8.533-3.82,8.533-8.533V486.4c-0.015-14.132-11.468-25.585-25.6-25.6h-0.503
			c-4.385-38.84-37.21-68.21-76.297-68.267h-34.133v-93.867H486.4c14.138,0,25.6-11.462,25.6-25.6S500.539,247.467,486.4,247.467z
			 M447.681,153.6H396.8c-11.75-0.077-21.256-9.583-21.333-21.333c0.014-11.776,9.557-21.32,21.333-21.333h18.509
			C428.165,123.463,439.076,137.845,447.681,153.6z M395.142,94.034C374.64,94.9,358.45,111.747,358.4,132.267
			c0.072,21.178,17.222,38.328,38.4,38.4h58.949c8.973,21.641,13.589,44.839,13.584,68.267v8.533H230.4V59.733h59.733
			C327.888,59.742,364.662,71.754,395.142,94.034z M42.667,17.067h25.6c4.71,0.006,8.527,3.823,8.533,8.533v17.067H42.667V17.067z
			 M42.667,59.733h170.667v187.733H42.667V59.733z M409.6,486.4v8.533H102.4V486.4c0.006-4.71,3.823-8.527,8.533-8.533h290.133
			C405.777,477.873,409.594,481.69,409.6,486.4z M383.392,460.8H128.608c4.28-29.37,29.445-51.162,59.125-51.2h136.533
			C353.947,409.638,379.112,431.43,383.392,460.8z M273.067,392.533h-34.133v-93.867h34.133V392.533z M486.4,281.6H25.6
			c-4.713,0-8.533-3.82-8.533-8.533s3.821-8.533,8.533-8.533h460.8c4.713,0,8.533,3.82,8.533,8.533S491.113,281.6,486.4,281.6z"/>
		<path d="M145.067,102.4h-51.2c-4.713,0-8.533,3.821-8.533,8.533c0,4.713,3.821,8.533,8.533,8.533h51.2
			c4.713,0,8.533-3.821,8.533-8.533C153.6,106.221,149.779,102.4,145.067,102.4z"/>
	</g>
</g>
<g>
</g>
<g>
</g>
<g>
</g>
<g>
</g>
<g>
</g>
<g>
</g>
<g>
</g>
<g>
</g>
<g>
</g>
<g>
</g>
<g>
</g>
<g>
</g>
<g>
</g>
<g>
</g>
<g>
</g>
</svg>
