<?xml version="1.0" encoding="iso-8859-1"?>
<!-- Generator: Adobe Illustrator 19.0.0, SVG Export Plug-In . SVG Version: 6.00 Build 0)  -->
<svg version="1.1" id="Capa_1" xmlns="http://www.w3.org/2000/svg" xmlns:xlink="http://www.w3.org/1999/xlink" x="0px" y="0px"
	 viewBox="0 0 512 512" style="enable-background:new 0 0 512 512;" xml:space="preserve">
<path style="fill:#8FA2C2;" d="M256,0C114.841,0,0,114.841,0,256s114.841,256,256,256s256-114.841,256-256S397.159,0,256,0z
	 M202.034,412.967c-28.006-9.697-53.318-26.945-72.685-49.795c-19.979-23.571-32.696-51.369-37.346-81.314
	C150.711,300.558,193.735,351.824,202.034,412.967z M157.605,122.395C186.292,101.202,220.316,90,256,90
	s69.708,11.202,98.395,32.395c22.024,16.271,39.878,38.047,51.613,62.634H105.992C117.727,160.441,135.581,138.665,157.605,122.395z
	 M309.967,412.967c8.299-61.142,51.322-112.406,110.03-131.105c-4.651,29.944-17.368,57.74-37.347,81.312
	C363.285,386.02,337.97,403.269,309.967,412.967z"/>
<path style="fill:#7887B0;" d="M257.713,0.022v89.995c35.058,0.353,68.455,11.525,96.682,32.378
	c22.024,16.271,39.878,38.047,51.613,62.634H257.713v326.95C398.085,511.052,512,396.586,512,256S398.085,0.948,257.713,0.022z
	 M382.65,363.173c-19.365,22.847-44.681,40.096-72.684,49.794c8.299-61.142,51.322-112.406,110.03-131.105
	C415.346,311.806,402.629,339.602,382.65,363.173z"/>
<path style="fill:#FFEA00;" d="M299.268,265.604c-8.486-20.537-27.715-27.824-41.604-27.824c-5.844,0-11.427,1.133-17.069,3.463
	c-14.214,5.87-21.078,16.446-24.334,24.287c-3.254,7.841-5.901,20.17-0.031,34.379c8.486,20.54,27.716,27.828,41.605,27.828
	c5.844,0,11.425-1.131,17.063-3.459C297.794,314.82,308.726,288.5,299.268,265.604z"/>
<path style="fill:#FDBF00;" d="M299.268,265.604c-8.486-20.537-27.715-27.824-41.604-27.824l0.171,89.957
	c5.844,0,11.425-1.131,17.063-3.459C297.794,314.82,308.726,288.5,299.268,265.604z"/>
<g>
</g>
<g>
</g>
<g>
</g>
<g>
</g>
<g>
</g>
<g>
</g>
<g>
</g>
<g>
</g>
<g>
</g>
<g>
</g>
<g>
</g>
<g>
</g>
<g>
</g>
<g>
</g>
<g>
</g>
</svg>
