<?xml version="1.0" encoding="iso-8859-1"?>
<!-- Generator: Adobe Illustrator 19.0.0, SVG Export Plug-In . SVG Version: 6.00 Build 0)  -->
<svg version="1.1" id="Capa_1" xmlns="http://www.w3.org/2000/svg" xmlns:xlink="http://www.w3.org/1999/xlink" x="0px" y="0px"
	 viewBox="0 0 512.002 512.002" style="enable-background:new 0 0 512.002 512.002;" xml:space="preserve">
<g>
	<path style="fill:#4398D1;" d="M61.963,197.735L61.963,197.735c18.603-3.055,36.164,9.557,39.219,28.16l0,0l0,0l-67.379,11.059l0,0
		l0,0C30.748,218.343,43.36,200.79,61.963,197.735z"/>
	
		<rect x="52.154" y="172.204" transform="matrix(-0.9869 0.1613 -0.1613 -0.9869 151.2457 367.96)" style="fill:#4398D1;" width="17.067" height="35.831"/>
</g>
<polygon style="fill:#3685BA;" points="101.037,277.744 126.423,221.689 8.535,241.051 50.511,286.038 53.276,302.883 
	103.802,294.589 "/>
<g>
	<polygon style="fill:#4398D1;" points="143.012,322.74 137.483,289.059 103.802,294.589 53.276,302.883 19.595,308.413 
		25.124,342.094 58.805,336.564 109.331,328.27 	"/>
	<path style="fill:#4398D1;" d="M127.302,437.761l-50.5,8.269c-23.253,3.823-38.997,25.762-35.183,49.015l1.357,8.422L177.7,481.349
		l-1.382-8.422C172.486,449.682,150.547,433.947,127.302,437.761z"/>
</g>
<polygon style="fill:#3685BA;" points="109.331,328.27 58.805,336.564 68.363,447.412 135.725,436.353 "/>
<g>
	<polygon style="fill:#E8594A;" points="312.006,137.883 296.535,130.672 311.759,97.341 327.221,104.56 	"/>
	<polygon style="fill:#E8594A;" points="312.288,257.674 326.726,226.74 295.793,212.31 249.389,190.661 218.455,176.231 
		204.026,207.165 234.959,221.595 281.363,243.244 	"/>
	<path style="fill:#E8594A;" d="M234.464,343.775l-46.404-21.649c-21.359-9.958-46.746-0.725-56.704,20.634l0,0l-3.61,7.731
		l123.733,57.719l3.61-7.731C265.047,379.129,255.814,353.742,234.464,343.775z"/>
</g>
<g>
	<polygon style="fill:#D95345;" points="281.363,243.244 234.959,221.595 180.328,318.525 242.195,347.385 	"/>
	<path style="fill:#D95345;" d="M325.122,169.516c8.081-17.033,0.819-37.393-16.213-45.466
		c-17.033-8.081-37.393-0.819-45.466,16.213c-3.593,7.586-4.275,16.222-1.903,24.277l-12.194,26.129l46.404,21.649l12.186-26.138
		C315.505,182.905,321.615,176.974,325.122,169.516z"/>
</g>
<path style="fill:#FEC9A3;" d="M426.669,8.534h-135.68c-11.204,0-21.692,5.495-28.066,14.703l-45.517,65.758
	c-10.684,15.437-6.835,36.608,8.602,47.292c0.811,0.563,1.638,1.084,2.492,1.57l0,0c15.514,8.866,35.243,4.207,45.158-10.658
	l33.545-50.398h85.333c18.85,0,34.133,15.283,34.133,34.133l0,0c0,18.85-15.283,34.133-34.133,34.133H359.87
	c-17.937-0.299-33.22,12.971-35.439,30.78c-1.852,18.756,11.853,35.473,30.618,37.325c1.109,0.111,2.236,0.162,3.354,0.162h153.6
	V8.534H426.669z"/>
<g>
	<rect x="0.002" y="494.934" style="fill:#87CED9;" width="512" height="17.067"/>
	
		<rect x="151.58" y="162.143" transform="matrix(-0.4472 0.8944 -0.8944 -0.4472 399.6392 94.3618)" style="fill:#87CED9;" width="38.16" height="17.066"/>
	
		<rect x="119.46" y="151.588" transform="matrix(-0.8944 0.4472 -0.4472 -0.8944 318.7993 266.0771)" style="fill:#87CED9;" width="17.066" height="38.16"/>
	<path style="fill:#87CED9;" d="M277.805,450.834l-9.472-14.199c13.619-9.054,21.803-24.329,21.803-40.687v-3.413h17.067v3.413
		C307.211,418.015,296.177,438.614,277.805,450.834z"/>
</g>
<path d="M269.903,28.101c4.787-6.921,12.672-11.042,21.086-11.034h221.013V0.001H290.989c-14.003,0-27.11,6.869-35.081,18.381
	l-45.559,65.749c-13.372,19.319-8.542,45.815,10.778,59.187c0.998,0.691,2.031,1.34,3.089,1.946
	c8.405,4.753,18.185,6.468,27.708,4.873c-0.495,4.506-0.273,9.071,0.657,13.508l-7.322,15.676l-23.194-10.82
	c-4.267-1.997-9.344-0.145-11.341,4.122l-14.455,30.933c-1.997,4.267-0.154,9.344,4.113,11.349h0.009l22.579,10.53l-47.625,84.48
	c-8.585-0.879-17.246,0.418-25.19,3.772l-4.267-26.018c-0.725-4.617-5.052-7.774-9.677-7.049c-0.043,0.009-0.085,0.017-0.119,0.017
	l-25.267,4.147l-0.973-5.879l24.329-53.7c1.946-4.292,0.051-9.353-4.241-11.298c-1.536-0.7-3.243-0.922-4.915-0.649l-17.698,2.901
	c-6.127-15.94-21.137-26.718-38.204-27.418l-2.901-17.698l-16.836,2.765l2.901,17.698c-15.957,6.118-26.743,21.137-27.443,38.212
	l-17.69,2.91c-4.651,0.768-7.799,5.154-7.04,9.805c0.273,1.664,1.033,3.209,2.185,4.437l40.209,43.102l0.964,5.871l-25.259,4.147
	c-4.634,0.759-7.782,5.129-7.04,9.771l5.538,33.681c0.674,4.122,4.233,7.142,8.405,7.151c0.469,0,0.93-0.034,1.391-0.119
	l24.593-4.019l8.329,96.64C40.698,453.206,30.184,473.84,33,494.934H0.002v17.067h512v-17.067H147.629l31.471-5.12
	c4.651-0.759,7.799-5.154,7.04-9.805l0,0l-1.382-8.422c-3.575-21.547-20.403-38.468-41.933-42.155l-17.212-70.485l122.274,57.037
	c4.267,1.997,9.344,0.145,11.341-4.122l3.61-7.731c9.344-19.746,4.941-43.264-10.914-58.3l34.193-90.914l22.571,10.47
	c1.135,0.521,2.364,0.794,3.61,0.794c0.99,0,1.98-0.171,2.91-0.512c2.125-0.777,3.866-2.364,4.821-4.412l14.43-30.933
	c1.988-4.275,0.145-9.353-4.13-11.341l0,0l-23.194-10.769l7.313-15.676c1.058-0.572,2.014-1.297,3.021-1.946
	c4.924,18.534,21.76,31.403,40.934,31.275h153.6v-17.067h-153.6c-7.219-0.009-14.097-3.055-18.953-8.388
	c-4.898-5.35-7.27-12.544-6.519-19.755c1.801-13.423,13.397-23.347,26.94-23.057h32.666c23.561,0,42.667-19.106,42.667-42.667
	s-19.106-42.667-42.667-42.667h-85.333c-2.85,0-5.513,1.425-7.1,3.797l-33.604,50.406c-0.188,0.29-0.444,0.521-0.649,0.802
	c-1.399,1.314-2.705,2.722-3.908,4.207c-8.132,7.091-19.857,8.286-29.252,2.97c-12.194-6.989-16.418-22.545-9.421-34.748
	c0.358-0.623,0.751-1.237,1.161-1.835L269.903,28.101z M63.328,206.107c10.709-1.758,21.367,3.422,26.59,12.937l-32.64,5.385
	l-14.993,2.458C44.188,216.202,52.619,207.873,63.328,206.107z M25.653,246.887l43.213-7.1l33.681-5.53l0,0l9.515-1.562
	l-18.773,41.532c-0.691,1.536-0.922,3.234-0.649,4.898l1.382,8.422l-21.675,3.567l-12.006,1.971l-1.382-8.431
	c-0.273-1.664-1.033-3.209-2.176-4.437L25.653,246.887z M128.685,446.149c18.603-3.021,36.156,9.566,39.253,28.16L50.007,493.671
	c-3.055-18.611,9.549-36.181,28.16-39.253l25.259-4.147L128.685,446.149z M67.987,343.707l31.932-5.248l2.995-0.486l22.332,91.452
	l-49.169,8.081L67.987,343.707z M123.624,339.15l-1.869,4.011l-1.946-7.962l6.537-1.075
	C125.348,335.745,124.435,337.426,123.624,339.15z M32.164,332.323l-2.765-16.836l101.052-16.597l2.756,16.845L32.164,332.323z
	 M247.358,396.903l-108.262-50.534c7.962-17.084,28.271-24.482,45.363-16.512l0,0l46.404,21.649
	c17.084,7.97,24.474,28.279,16.503,45.363l0,0L247.358,396.903z M237.451,335.788l-22.579-10.573l-22.588-10.53l46.225-82.014
	l32.085,14.967L237.451,335.788z M315.377,230.905l-7.211,15.462l-23.151-10.846l0,0l-46.404-21.649l0,0l-23.177-10.812
	l7.211-15.471L315.377,230.905z M311.767,85.334h80.768c14.14,0,25.6,11.46,25.6,25.6s-11.46,25.6-25.6,25.6H359.87
	c-8.772,0.034-17.34,2.637-24.644,7.492c-2.466-9.19-7.919-17.297-15.505-23.04l7.501-16.427l-15.462-7.219l-7.492,16.393
	c-3.499-0.811-7.074-1.195-10.667-1.143L311.767,85.334z M269.314,168.108c0.879-1.869,1.041-3.994,0.461-5.973
	c-1.792-5.922-1.34-12.305,1.263-17.92c0.742-1.579,1.638-3.089,2.679-4.489c1.408-1.28,2.731-2.654,3.951-4.122
	c10.726-9.182,26.854-7.927,36.036,2.799c6.528,7.62,7.987,18.364,3.729,27.452c-2.628,5.598-7.219,10.044-12.902,12.493
	c-1.886,0.836-3.396,2.33-4.267,4.198l-8.585,18.398l-30.933-14.438L269.314,168.108z"/>
<rect x="151.58" y="162.143" transform="matrix(-0.4472 0.8944 -0.8944 -0.4472 399.6392 94.3618)" width="38.16" height="17.066"/>
<rect x="119.46" y="151.588" transform="matrix(-0.8944 0.4472 -0.4472 -0.8944 318.7993 266.0771)" width="17.066" height="38.16"/>
<path d="M268.333,436.635l9.472,14.199c18.372-12.22,29.406-32.819,29.397-54.886v-3.413h-17.067v3.413
	C290.135,412.306,281.952,427.581,268.333,436.635z"/>
<g>
</g>
<g>
</g>
<g>
</g>
<g>
</g>
<g>
</g>
<g>
</g>
<g>
</g>
<g>
</g>
<g>
</g>
<g>
</g>
<g>
</g>
<g>
</g>
<g>
</g>
<g>
</g>
<g>
</g>
</svg>
