<?xml version="1.0" encoding="iso-8859-1"?>
<!-- Generator: Adobe Illustrator 19.0.0, SVG Export Plug-In . SVG Version: 6.00 Build 0)  -->
<svg version="1.1" id="Capa_1" xmlns="http://www.w3.org/2000/svg" xmlns:xlink="http://www.w3.org/1999/xlink" x="0px" y="0px"
	 viewBox="0 0 512.02 512.02" style="enable-background:new 0 0 512.02 512.02;" xml:space="preserve">
<path style="fill:#87D2F3;" d="M458.675,405.333v96c-40.533,0-40.533-21.333-81.067-21.333s-40.533,21.333-81.173,21.333
	c-40.427,0-40.427-21.333-80.96-21.333s-40.533,21.333-81.067,21.333S93.875,480,53.342,480V117.333
	c0-58.91,47.756-106.667,106.667-106.667h192c58.91,0,106.667,47.756,106.667,106.667V405.333z"/>
<g>
	<circle style="fill:#FFFFFF;" cx="181.342" cy="170.667" r="53.333"/>
	<circle style="fill:#FFFFFF;" cx="330.675" cy="170.667" r="53.333"/>
	<path style="fill:#FFFFFF;" d="M373.342,384H96.009c-74.667,0-85.333-85.333-85.333-85.333h362.667V384z"/>
	<path style="fill:#FFFFFF;" d="M426.675,320h74.667v42.667h-74.667V320z"/>
	<path style="fill:#FFFFFF;" d="M394.675,362.667h-21.333V320h21.333h32v42.667H394.675z"/>
</g>
<g>
	<path style="fill:#2170A6;" d="M362.675,394.667v10.667h-21.333v21.333h21.333c11.782,0,21.333-9.551,21.333-21.333v-128
		c0-11.782-9.551-21.333-21.333-21.333h-21.333v21.333h21.333V288h-352c-5.891,0.002-10.665,4.779-10.664,10.67
		c0,0.441,0.028,0.882,0.082,1.32c4.096,32.747,29.408,94.677,95.915,94.677H362.675z M23.763,309.333h338.912v64H96.009
		C46.942,373.333,29.47,330.805,23.763,309.333L23.763,309.333z"/>
	<path style="fill:#2170A6;" d="M74.675,330.667h170.667V352H74.675V330.667z"/>
	<path style="fill:#2170A6;" d="M501.342,309.333h-64V288h-21.333v21.333h-21.333v21.333h21.333V352h-21.333v21.333h21.333v21.333
		h21.333v-21.333h64c5.891,0,10.667-4.776,10.667-10.667V320C512.009,314.109,507.233,309.333,501.342,309.333z M490.675,352
		h-53.333v-21.333h53.333V352z"/>
	<path style="fill:#2170A6;" d="M266.675,330.667h21.333V352h-21.333V330.667z"/>
	<path style="fill:#2170A6;" d="M309.342,330.667h21.333V352h-21.333V330.667z"/>
	<path style="fill:#2170A6;" d="M448.009,490.037c-8.802-1.25-17.267-4.246-24.896-8.811c-28.262-15.85-62.736-15.85-90.997,0
		c-10.741,6.505-23.127,9.782-35.68,9.44c-12.476,0.334-24.784-2.94-35.445-9.429c-13.768-8.127-29.531-12.25-45.515-11.904
		c-15.978-0.34-31.736,3.778-45.504,11.893c-10.701,6.499-23.048,9.776-35.563,9.44c-12.515,0.336-24.862-2.941-35.563-9.44
		c-10.66-6.254-22.542-10.139-34.837-11.392V416H42.675v64c0,5.891,4.776,10.667,10.667,10.667
		c12.515-0.336,24.862,2.941,35.563,9.44c13.768,8.115,29.526,12.234,45.504,11.893c15.978,0.341,31.736-3.778,45.504-11.893
		c10.701-6.499,23.048-9.776,35.563-9.44c12.517-0.342,24.867,2.94,35.563,9.451c13.732,8.108,29.454,12.223,45.397,11.883
		c16.014,0.346,31.808-3.776,45.611-11.904c22.04-12.579,49.085-12.579,71.125,0c13.768,8.117,29.525,12.24,45.504,11.904
		c5.891,0,10.667-4.776,10.667-10.667v-96h-21.333V490.037z"/>
	<path style="fill:#2170A6;" d="M64.009,117.333c0.065-52.993,43.007-95.935,96-96h192c52.993,0.065,95.935,43.007,96,96v160h21.333
		v-160C469.266,52.564,416.778,0.076,352.009,0h-192C95.239,0.076,42.752,52.564,42.675,117.333v149.333h21.333V117.333z"/>
	<path style="fill:#2170A6;" d="M216.467,120.459l-35.125,35.125l-35.125-35.125l-15.083,15.083l35.125,35.125l-35.125,35.125
		l15.083,15.083l35.125-35.125l35.125,35.125l15.083-15.083l-35.125-35.125l35.125-35.125L216.467,120.459z"/>
	<path style="fill:#2170A6;" d="M365.801,120.459l-35.125,35.125l-35.125-35.125l-15.083,15.083l35.125,35.125l-35.125,35.125
		l15.083,15.083l35.125-35.125l35.125,35.125l15.083-15.083l-35.125-35.125l35.125-35.125L365.801,120.459z"/>
</g>
<g>
</g>
<g>
</g>
<g>
</g>
<g>
</g>
<g>
</g>
<g>
</g>
<g>
</g>
<g>
</g>
<g>
</g>
<g>
</g>
<g>
</g>
<g>
</g>
<g>
</g>
<g>
</g>
<g>
</g>
</svg>
