<?xml version="1.0" encoding="iso-8859-1"?>
<!-- Generator: Adobe Illustrator 21.0.0, SVG Export Plug-In . SVG Version: 6.00 Build 0)  -->
<svg version="1.1" id="Capa_1" xmlns="http://www.w3.org/2000/svg" xmlns:xlink="http://www.w3.org/1999/xlink" x="0px" y="0px"
	 viewBox="0 0 511.997 511.997" style="enable-background:new 0 0 511.997 511.997;" xml:space="preserve">
<path style="fill:#444444;" d="M322.913,464.053c-1.699,0-3.442-0.293-5.127-0.908c-7.793-2.827-11.807-11.44-8.965-19.219
	l94.38-261.292c2.827-7.778,11.484-11.763,19.219-8.965c7.793,2.827,11.807,11.44,8.965,19.219l-94.38,261.292
	C334.793,460.273,329.036,464.053,322.913,464.053z"/>
<path style="fill:#5A5A5A;" d="M189.085,464.053c-6.123,0-11.88-3.779-14.092-9.873l-94.38-261.292
	c-2.842-7.778,1.172-16.392,8.965-19.219c7.749-2.813,16.392,1.172,19.219,8.965l94.38,261.292
	c2.842,7.778-1.172,16.392-8.965,19.219C192.527,463.76,190.784,464.053,189.085,464.053z"/>
<path style="fill:#444444;" d="M270.486,436.909c-0.864,0-1.743-0.073-2.622-0.234c-8.159-1.436-13.608-9.214-12.158-17.373
	l50.566-288.729c1.436-8.174,9.17-13.667,17.373-12.158c8.159,1.436,13.608,9.214,12.158,17.373l-50.566,288.729
	C283.963,431.797,277.635,436.909,270.486,436.909z"/>
<g>
	<path style="fill:#C5D3DD;" d="M321.038,148.181c-0.864,0-1.729-0.073-2.607-0.234c-5.596-0.981-10.151-5.039-11.763-10.488
		l-19.131-64.307c-1.348-4.526-0.483-9.419,2.329-13.213l39.961-53.877c3.384-4.57,8.965-6.826,14.648-5.83
		c5.596,0.981,10.151,5.039,11.763,10.488l19.131,64.292c1.348,4.526,0.498,9.419-2.314,13.213l-39.961,53.892
		C330.223,145.969,325.74,148.181,321.038,148.181z"/>
	<path style="fill:#C5D3DD;" d="M417.293,202.761c-1.729,0-3.457-0.293-5.127-0.908c-5.347-1.934-9.126-6.724-9.771-12.378
		l-7.676-66.636c-0.542-4.688,1.157-9.36,4.585-12.598l48.706-46.128c4.102-3.94,10.107-5.186,15.439-3.208
		c5.347,1.934,9.126,6.724,9.771,12.378l7.676,66.636c0.542,4.688-1.157,9.36-4.585,12.598l-48.706,46.128
		C424.778,201.34,421.072,202.761,417.293,202.761z"/>
</g>
<path style="fill:#D9E7EC;" d="M94.705,202.761c-3.779,0-7.485-1.421-10.313-4.116l-48.706-46.128
	c-3.428-3.237-5.127-7.91-4.585-12.598l7.676-66.636c0.645-5.654,4.424-10.444,9.771-12.378c5.332-1.963,11.309-0.703,15.439,3.208
	l48.706,46.128c3.428,3.237,5.127,7.91,4.585,12.598l-7.676,66.636c-0.645,5.654-4.424,10.444-9.771,12.378
	C98.162,202.468,96.434,202.761,94.705,202.761z"/>
<path style="fill:#5A5A5A;" d="M241.512,436.909c-7.148,0-13.477-5.112-14.751-12.393l-50.566-288.729
	c-1.45-8.159,3.999-15.938,12.158-17.373c8.115-1.523,15.938,3.984,17.373,12.158l50.566,288.729
	c1.45,8.159-3.999,15.938-12.158,17.373C243.255,436.836,242.376,436.909,241.512,436.909z"/>
<path style="fill:#D9E7EC;" d="M190.96,148.181c-4.702,0-9.185-2.212-12.056-6.064l-39.961-53.892
	c-2.813-3.794-3.662-8.687-2.314-13.213L155.76,10.72c1.611-5.449,6.167-9.507,11.763-10.488c5.728-0.981,11.265,1.274,14.648,5.83
	l39.961,53.877c2.813,3.794,3.677,8.687,2.329,13.213l-19.131,64.307c-1.611,5.449-6.167,9.507-11.763,10.488
	C192.688,148.107,191.824,148.181,190.96,148.181z"/>
<path style="fill:#B35F49;" d="M480.999,481.997c0,16.5-13.5,30-30,30h-75c-8.101,0-15.601-3.001-21.301-8.701
	c-8.699-6.599-37.2-50.4-98.699-50.4c-62.1,0-89.099,43.2-98.699,50.4c-5.7,5.7-13.2,8.701-21.301,8.701h-75c-16.5,0-30-13.5-30-30
	s13.5-30,30-30H123.7c3.3-2.401,49.499-60,132.299-60c84,0,128.101,56.999,132.299,60h62.701
	C467.499,451.997,480.999,465.497,480.999,481.997z"/>
<path style="fill:#99503D;" d="M480.999,481.997c0,16.5-13.5,30-30,30h-75c-8.101,0-15.601-3.001-21.301-8.701
	c-8.699-6.599-37.2-50.4-98.699-50.4v-60.899c84,0,128.101,56.999,132.299,60h62.701
	C467.499,451.997,480.999,465.497,480.999,481.997z"/>
<path style="fill:#B35F49;" d="M450.098,259.796c-2.098,6.301-7.798,10.201-14.099,10.201c-1.5,0-3.3-0.3-4.799-0.901
	c-56.4-18.9-115.801-28.2-175.201-28.2s-118.801,9.3-175.201,28.2c-8.099,2.701-16.5-1.5-18.898-9.3c-2.701-7.8,1.5-16.5,9.3-18.9
	c59.399-20.099,122.098-30,184.799-30s125.4,9.901,184.799,30C448.598,243.297,452.799,251.996,450.098,259.796z"/>
<path style="fill:#99503D;" d="M431.2,269.096c-56.4-18.9-115.801-28.2-175.201-28.2v-30c62.701,0,125.4,9.901,184.799,30
	c7.8,2.401,12.001,11.1,9.3,18.9c-2.098,6.301-7.798,10.201-14.099,10.201C434.499,269.997,432.699,269.697,431.2,269.096z"/>
<g>
</g>
<g>
</g>
<g>
</g>
<g>
</g>
<g>
</g>
<g>
</g>
<g>
</g>
<g>
</g>
<g>
</g>
<g>
</g>
<g>
</g>
<g>
</g>
<g>
</g>
<g>
</g>
<g>
</g>
</svg>
