<?xml version="1.0" encoding="iso-8859-1"?>
<!-- Generator: Adobe Illustrator 19.0.0, SVG Export Plug-In . SVG Version: 6.00 Build 0)  -->
<svg version="1.1" id="Capa_1" xmlns="http://www.w3.org/2000/svg" xmlns:xlink="http://www.w3.org/1999/xlink" x="0px" y="0px"
	 viewBox="0 0 499.328 499.328" style="enable-background:new 0 0 499.328 499.328;" xml:space="preserve">
<g transform="matrix(1.25 0 0 -1.25 0 45)">
	<g>
		<g>
			<path style="fill:#3E721D;" d="M359.512-272.589c0,0,6.713-13.494,20.218-6.758c13.494,6.725,3.334-23.609,3.334-23.609
				s-32.847-1.4-56.104-0.216c-21.299,1.081-7.942,10.411,5.553,17.135C346.017-279.313,359.512-272.589,359.512-272.589"/>
			<g>
				<path style="fill:#F9CA55;" d="M292.179-108.146c-7.452-11.821-17.158-23.677-23.643-25.35
					c-4.87-1.263-14.564-3.618-21.026-7.544c-6.451-3.937-5.484-7.964,2.901-12.095c8.385-4.141,19.377-2.389,25.122,4.005
					c5.746,6.394,20.866,16.532,30.22,22.54C315.093-120.593,297.777-99.259,292.179-108.146"/>
				<path style="fill:#F9CA55;" d="M289.37-113.876c3.265,5.461,10.9,11.878,10.9,11.878l-4.392,28.137l34.463-1.365
					c0,0-4.801-29.115-6.246-35.704c-1.445-6.588-14.848-15.155-23.745-18.944C291.463-133.673,285.717-119.985,289.37-113.876"/>
				<path style="fill:#F9CA55;" d="M349.002-227.081c0,0-39.834,14.779-39.834,4.267c0-10.502,36.989-29.161,50.495-51.905
					c5.461-9.193,25.372-15.61,21.345,4.255C373.191-232.007,349.002-227.081,349.002-227.081"/>
				<path style="fill:#F9CA55;" d="M320.447-222.923c0,0,14.825-17.249,24.292-12.686c9.455,4.563,27.819,42.872,32.711,56.889
					c4.892,14.017-5.587,42.508-19.934,23.928S320.447-222.923,320.447-222.923"/>
			</g>
			<path style="fill:#3E721D;" d="M389.977-156.66l-69.416-27.034l43.861-23.666L389.977-156.66z"/>
			<path style="fill:#FFDC5D;" d="M309.168-183.698c0,0-22.756-34.145-22.756-45.523c0-11.378,11.378-45.511,11.378-79.644
				s22.756-34.133,22.756-22.756c0,11.378,17.989,61.656,0,79.644c-11.378,11.378,22.756,45.523,22.756,45.523L309.168-183.698z"/>
			<path style="fill:#77B255;" d="M331.923-138.187l-29.855-56.901l34.133-22.039c0,0,63.26,57.082,63.26,79.838
				c0,31.823-28.422,42.473-28.422,42.473L331.923-138.187z"/>
			<g>
				<path style="fill:#FFDC5D;" d="M297.744-13.649l11.537-24.599l-29.15-11.788l-12.026,20.15L297.744-13.649z"/>
				<path style="fill:#FFDC5D;" d="M303.198-11.399c-2.025-18.068-17.363-25.907-32.768-31.903
					c-14.689-5.711-26.886,19.98-28.854,37.933c-1.991,18.068,19.115,31.846,35.544,30.015
					C293.549,22.802,305.223,6.669,303.198-11.399"/>
				<path style="fill:#FFDC5D;" d="M246.602-109.037c-14.927-9.956-32.006-28.444-41.244-29.867
					c-11.241-1.729-19.194,10.673-29.468-4.165c-6.485-9.352,3.868-19.297,25.202-19.297c12.276,0,46.547,18.501,59.733,27.727
					c14.222,9.956,17.396,21.242,22.551,34.828c1.627,4.278,5.894-6.383,15.849-11.355c16.498-8.261,27.727-16.361,34.133-26.317
					c30.584,16.361,50.495,34.133,50.495,34.133c-17.784,19.911-28.081,41.734-46.228,55.467
					c-28.684,21.709-40.835,8.568-61.235-1.524C261.962-56.539,255.135-76.326,246.602-109.037"/>
			</g>
			<g>
				<path style="fill:#77B255;" d="M332.644-140.326c30.584,16.35,51.2,36.978,51.2,36.978
					c-17.772,19.911-28.069,41.734-46.228,55.467c-4.017,3.038-7.68,5.336-11.128,7.111c1.434-2.605,1.206-5.348-3.8-7.111
					c-10.831-3.823-23.393,3.151-36.625,3.618c-2.332-1.274-4.733-2.594-7.247-3.891c11.138-1.377,23.688-15.053,26.089-28.888
					c2.435-13.972-2.412-26.852-8.317-32.54c0.842-0.557,1.695-1.115,2.629-1.581C315.725-119.424,326.249-130.37,332.644-140.326"
					/>
				<path style="fill:#77B255;" d="M296.984-317.655c0,0,8.021-13.95,21.971-5.916c13.938,8.021,5.063-24.94,5.063-24.94
					s-38.878-13.084-60.849-7.168c-21.971,5.928-8.021,13.95,5.916,21.971C283.036-325.676,296.984-317.655,296.984-317.655"/>
			</g>
			<path style="fill:#FFAC33;" d="M246.933,17.99c20.866,15.291,35.761,14.154,48.766,5.245
				c12.925-8.84,14.882-27.261,12.367-39.276c-2.515-12.015-5.985-11.628-5.985-11.628s-15.974-4.904-18.306,10.081
				c-0.74,4.744,4.369,7.714-1.923,14.267c-4.051,4.221-12.14,1.365-11.697-5.132c0.443-6.485-2.958-5.518-2.958-5.518
				L256.161,2.482c0,0-8.454-0.136-12.55-8.215C241.039-10.796,228.705,4.643,246.933,17.99"/>
			<path style="fill:#2A6797;" d="M105.388-276.184c0,0-8.374-12.538-20.913-4.153s-6.292-22.995-6.292-22.995
				s32.415-5.53,55.637-7.304c21.254-1.615,9.182,9.33-3.345,17.692C117.927-284.558,105.388-276.184,105.388-276.184"/>
			<g>
				<path style="fill:#4289C1;" d="M34.431-312.268c0,0-10.513-12.174-22.687-1.661c-12.174,10.524-9.694-23.518-9.694-23.518
					s35.692-20.207,58.391-18.557c22.699,1.661,10.513,12.174-1.661,22.699C46.605-322.793,34.431-312.268,34.431-312.268"/>
				<path style="fill:#4289C1;" d="M78.779-45.035c31.084,3.539,37.228-6.599,42.007-15.986
					c11.128-21.845-9.899-37.922-15.258-45.761c-5.359-7.828-32.563-30.913-35.863-43.691c-3.3-12.777,1.65-12.777,10.309-18.967
					c8.659-6.178,38.833-21.197,43.372-31.096c4.529-9.887,3.049-16.577-1.9-24.417c-4.949-7.828-17.908-44.089-17.089-53.578
					c0,0-11.128-9.478-21.435-0.819c0,0,0.831,30.504,2.89,42.041c2.06,11.548,6.474,20.537,6.474,20.537l-28.797,9.603
					c0,0,5.768-15.86,5.359-23.279s-9.944-21.709-14.017-26.795c-6.599-8.249-20.184-37.9-20.401-55.023
					c0,0-10.126-13.812-22.687-1.661c0,0-0.193,28.239,1.457,39.367c1.638,11.128,14.427,35.044,17.306,40.403
					c2.89,5.359-4.244,10.024-7.544,17.032S0-183.458,0-168.61c0,14.836,7.418,37.512,13.198,45.75
					c5.768,8.249,17.408,40.072,20.196,49.061C38.752-56.481,56.922-47.515,78.779-45.035"/>
			</g>
			<path style="fill:#FFDC5D;" d="M61.357-201.481c0,0-26.089-6.986-38.047-16.27c3.027-7.123,7.384-15.803,4.494-21.163
				c-2.879-5.359-12.959-24.519-14.609-35.647s-1.457-39.367-1.457-39.367c12.572-12.152,22.687,1.661,22.687,1.661
				c0.216,17.124,13.801,46.774,20.401,55.023c4.073,5.086,13.608,19.377,14.017,26.795c0.41,7.418-4.529,21.845-4.529,21.845
				L61.357-201.481z"/>
			<path style="fill:#F9CA55;" d="M123.343-200.532c-2.788,6.075-15.212,14.063-26.408,20.764
				c-9.83-7.156-18.819-27.386-20.639-31.665l15.281-6.406c0,0-3.709-7.919-5.768-19.468c-2.06-11.537-2.89-42.053-2.89-42.053
				c10.309-8.647,21.435,0.831,21.435,0.831c-0.819,9.478,12.14,45.75,17.089,53.578
				C126.392-217.121,127.871-210.431,123.343-200.532"/>
			<path style="fill:#FFDC5D;" d="M29.356-84.503c-1.775-13.153,11.378-16.714,22.756-12.083
				C63.49-91.967,72.74-84.15,74.867-72.056c1.377,7.828-2.491,25.953-14.222,23.461C44.853-51.94,32.121-64.047,29.356-84.503"/>
			<path style="fill:#F9CA55;" d="M102.247-45.389c11.025-1.422,19.194-6.758,22.756-17.42c3.561-10.673,8.328-42.2,9.603-45.158
				c1.069-2.491,3.197-5.336,7.111-3.561c3.914,1.786,17.067,4.267,23.814,4.984c6.758,0.705,6.758,9.956,15.644,13.153
				c8.897,3.197,18.853-2.844,19.206-11.731c0.353-8.886-2.127-12.8-13.517-14.939c-11.378-2.127-18.489-5.325-22.039-7.111
				c-3.561-1.775-35.556-11.378-40.175-10.309c-4.631,1.069-19.115,30.708-19.115,30.708l8.795,11.958c0,0-5.644,6.599-2.481,15.291
				C117.538-63.878,102.247-45.389,102.247-45.389"/>
			<path style="fill:#FFDC5D;" d="M30.779-82.726c-0.41-9.603,3.914-45.511,4.267-51.2c0.353-5.689,45.158-25.6,49.425-27.375
				s12.436-12.447,18.842-12.8c6.406-0.364,24.531,2.844,18.489,12.8c-6.042,9.956-16.35,15.997-24.178,15.291
				c-7.828-0.717-28.797,19.547-33.416,21.322c-4.631,1.786-6.406,4.267-4.631,9.603c1.786,5.336,8.533,29.867,9.25,37.695
				C69.532-69.573,31.484-66.012,30.779-82.726"/>
			<path style="fill:#2A6797;" d="M76.29-211.436c-1.069-0.353-12.8,4.267-12.8,4.267l-9.603,24.531l27.375-15.997
				c0,0-1.422-3.561-2.844-6.406C76.995-207.886,76.29-211.436,76.29-211.436"/>
			<g>
				<path style="fill:#FFDC5D;" d="M93.356-43.971c3.197-0.353,9.023-12.106,9.603-17.067c1.058-9.25-10.309-13.153-16.714-2.127
					c-6.394,11.014-9.239,15.997-14.575,17.067c0,0,5.689,1.422,11.025,1.775C88.02-43.971,93.356-43.971,93.356-43.971"/>
				<path style="fill:#FFDC5D;" d="M85.486-22.179l-10.98-23.916l23.825-14.939l11.378,21.333L85.486-22.179z"/>
				<path style="fill:#FFDC5D;" d="M80.032-19.929c2.025-18.068,19.558-31.141,34.304-32.575
					c16.453-1.605,25.179,20.457,27.238,39.014c2.014,18.068-19.035,31.437-35.464,29.605C89.68,14.272,78.006-1.861,80.032-19.929"
					/>
			</g>
			<path style="fill:#FFAC33;" d="M138.784,9.456c-17.339,14.484-35.761,14.154-48.765,5.245
				C77.093,5.861,75.136-12.56,77.651-24.574c2.514-12.015,4.324-10.15,4.324-10.15s3.914,1.422,4.984,6.394
				c1.001,4.699-2.389,8.738,3.903,15.291c4.051,4.221,6.497-3.106,6.053-9.603c-0.443-6.485,3.55-2.844,3.55-2.844l7.111,13.869
				c0,0,7.077-6.644,20.628-2.127c9.592,3.197,13.505,3.197,12.8-5.689C148.466-6.632,144.928,4.324,138.784,9.456"/>
		</g>
	</g>
</g>
<g>
</g>
<g>
</g>
<g>
</g>
<g>
</g>
<g>
</g>
<g>
</g>
<g>
</g>
<g>
</g>
<g>
</g>
<g>
</g>
<g>
</g>
<g>
</g>
<g>
</g>
<g>
</g>
<g>
</g>
</svg>
